<mxfile host="Electron" agent="Mozilla/5.0 (X11; Linux x86_64) AppleWebKit/537.36 (KHTML, like Gecko) draw.io/24.7.8 Chrome/128.0.6613.36 Electron/32.0.1 Safari/537.36" version="24.7.8">
  <diagram name="Page-1" id="e0GtAwZVTue-fKG_apaF">
    <mxGraphModel dx="2022" dy="1203" grid="1" gridSize="10" guides="1" tooltips="1" connect="1" arrows="1" fold="1" page="1" pageScale="1" pageWidth="850" pageHeight="1100" math="1" shadow="0">
      <root>
        <mxCell id="0" />
        <mxCell id="1" parent="0" />
        <mxCell id="MvSZSszgrA-fimm4-v6c-1" value="" style="shape=image;verticalLabelPosition=bottom;labelBackgroundColor=default;verticalAlign=top;aspect=fixed;imageAspect=0;image=data:image/png,iVBORw0KGgoAAAANSUhEUgAAA5AAAAEPCAIAAAC7gbzMAAAACXBIWXMAAA7EAAAOxAGVKw4bAAAgAElEQVR4nOzdeTwUbxgA8Gdnl0Xudd8lIkfoQkqly9FBSEL3faLovpVK9yVKzop00K36VXJ2qJCS+5b7ylp2Z39/kChE0Srv99MfGTPvPDM7Zp955z0ITCYTEARBEARBEKS3wlgdAIIgCIIgCIJ0BCWsCIIgCIIgSK+GElYEQRAEQRCkV0MJK4IgCIIgCNKroYQVQRAEQRAE6dVQwoogCIIgCIL0aihhRRAEQRAEQXo1lLAiCIIgCIIgvRpKWBEEQRAEQZBeDSWsCIIgCIIgSK+GElYEQRAEQRCkV0MJK4IgCIIgCNKroYQVQRAEQRAE6dVQwoogCIIgCIL0aihhRRAEQRAEQXo1lLAiCIIgCIIgvRpKWBEEQRAEQZBeDSWsCIIgCIIgSK+GElYEQRAEQRCkV0MJK4IgCIIgCNKroYQVQRAEQRAE6dVQwoogCIIgCIL0aihhRRAEQRAEQXo1lLAiCIIgCIIgvRpKWBEEQRAEQZBeDSWsCIIgCIIgSK+GElYEQRAEQRCkVyOxOgCky1z37b9+7Rqro0A66/rNm1LSUqyOomuWLFz09u1bVkeBdKd19vbWNnNYHQWCIMgvQgnr36empqastJTVUSCdRWfQWR1Cl1VUVKBr7B9TW1vL6hAQBEF+HUpY/2L648YSMSKro0Da9t/jx6wOoRuMNzBgdQjIb0lPT8/MyGB1FAiCIL8LJax/MY/z54lElLD2Uh7u7gddD7A6it8yQH6Ax4XzrI4C+S3paWmTDCawOgoEQZDfhTpdIQiCIAiCIL0aSlgRBEEQBEGQXg0lrAiCIAiCIEivhhJWBEEQBEEQpFdDCSuCIAiCIAjSq6GEFUEQBEEQBOnVUMKKIAiCIAiC9GooYUUQBEEQBEF6NZSwIgiCIAiCIL0amukKQZDfhldlxj55/PxlcnZxBRW4hGQVNYbrjdNT5UwIi5OaNE6iB5+M8fy7W1ce+6Dq4L5riih6AkcQBPk3oYQVQZDfwSiJvuCy91xYkayJnc20JUPkBKE0Mzk+InjDpNWfcQLF/OL4cRLsPbf/huxXz+PT8yteZdGniPbgfhAEQRAWQgkrgiC/rD4t0GHR9rulA+eeur11nCixcamUlPwQPaOZM/wd5u56WV7B7NZdMjKDPV4OW2Ih17Qzsra9l9fwfEm9Ef9Ctvr90SEIgiAAgNqwIgjyy2qi3VZvv5PLPtL+xLdstRmXkvV+FzOBqnJqN+4Sz7t14Oj9nNqWSTCPgr6h/kCebtwLq7R1dAiCIAigGlYEQX4R/aPvQb9PNEzSYqWVfJsVgpjA2AXmz8PLGMDfLRWGeGn04dW77hdJKXRHab3Nv310yJ9y+uTJiooKVkfRi6xcvZqfn5/VUSDdACWsCIL8ivr4myHxdYCJj548nLO9lUiD5jvLkJqy1fr8SL+zfjFl7BxQXZBVSBpoYL1ssYkSHwYAtNKUN1FR0c+fPKvUP+aiEXX0kPe9d4VMYfXpG1y2GsuSAPDiZ0fWuwYl1zAZ+Q/dHDO52WSM168cVvMuJiYqMjy8UGu/xzJlEtBKU+KioqMinj6t0D/poh5x9PDF+/EFTOEh0x1dtxjJkoCR+/j0sYuhEcmfaxVWhfotlSPSkq4fPBEQ9jqzHNdzjThu0nw0HQTMyH10+viF0KiPRV8UV968tFSOSPsQfPCk/8O4jHJ8zP5nJ004AQAvfunt5hFe2Y8Ho5aVfanBBzv7bdYlt3Gi2jw6h8liGABAfV6k/xm/2NLGOD6TFAxmL19srMyLXpAhPwq8Epifl8fqKHoRu3nzUML6b0AJK4Igv4CRF/siiwHAJj9Yma2D9chcjfkf7YP38iXu2DLfk3MUOQHw0qhDixbbWz1JOOW/SU+AWZ7yOua+/4U7qQ3ilS6b3w3QMlm0UvmWh2+0z84jQ7WPTqVgmLD+eh8tmYUjncIlJq4/7DCYBMAojAmPfRToFfKhTmkwDgDAKE+Ji35wyfNOaoN41e7N7+S1TJasVA7x8Ivy2XVIa+SJqRSilMEaVyl8xvRjyfTGV+/kwWbbjvBXj10aRMO/vYzvOGCi1IQ1+6XwmSbHSxuaSlE23+YmUG2w6CqN0bgEz7+6ecUZjh0P3U0EAK+IOWizsZrWzmlq6+ia4kjyXrnwHLbC57htYxzRbvMXO1r8l3jW33m0AMpZEQTpI1DCiiDIL6B/LizBAYCdh7ffz7Om+vgzm/ZHCK26Y6XYmL9iFN11W63DrD0v7jhmcHuXtpi21RrJmtgwlzc8w5cd2zyUCwDw8dyZBs5PX0UmNkzVb6taEohi2pZrB+Fxd7dGflsya51UTUzY/jieYSuPbWwuaKzzs5dRXwvC+Ph5CK1KIvHxcWNQ2/mAOQEw/h9K4efr962UhqQXcZU05dJKOgiQMH7tlWumeHa1dWp9/Fkn10jhlaHWzXHorN0++9Gs897bjo+7t1O73cptpE8boqHh4+/H6ihY6ezp0+fOurM6CqQ7oYQVQZBfwaDTAQAaaHUNAD9Jm6iR/leSGoStNGVatGUlqxlN6u/lnn7/5otN2vocAGwkIgBwC1KaklOMt7+sEBEvra7GOyqcSPq+gSzp+4L45GSFiXhJdU2HBXU54J8gycrLslVHHrBZXL5925JJA3gmbXTo5P6b44gICEpqELJuHYe60YT+Fz3S74fGbNIe12Ym30fRaLQPSUkJCQkfkz5UV1fTaDSMiHFwcIiKiKqqqamqq8nJybE6xj+kX79+3NzcrI6Clfr169OH/09CCSuCIL+AJCYhikEBjhfl59OBt8M7CT3j3fsyHFMQEGiVWrIrDurPDqllGanFuL50W9W0RCIBgMn8/U7zXSzolwNuvVOF+TsdYhYfCn96aknUNR3rdVvsTVV5MYDKZ6f2XvvU8HU9NlXbQ0uGtxlH5tvEMhwbKCD4fRzyTXGAVtrpXddS6F9/RVKzcV087F8Y4KsLqiqrrgYFhd68mZycTKfTO1iTl5d3+IgRs62t9ceNJRAIHayJIEhvg1pA9WVfXvt6PinqbKVT5+H5d7bOMDDfdu9zp8qmlXyMDD1/wGmBg+/XL94ultBRKHc3m04y3Xb/dwtCvkOU1dPpTwKgp72NK//JycVp9TQm4NVVVYxWy0kCgrwYMBk43svGcequgDnVF3qFXNw6U5WCF0R7O1ta7H5UDIDTK3JTU1PTmv8VVrUfRz0T8JrK7+PgF2iMg4E3VOa1LCqtoKovXemfkpO3btqsO3LkfheX9+/fN2erBAKBm5tbkELh5+cnk79VQldVVT1+9GjRggUTxo7zOn+huqq9M48gSK+Dalj7LkZ20NEDh8qLRo5ar969NTINWS8j49PzK15m0w1/OvcQXpn05FZggN/txFolCcdfKaHDUNA0SD2FpGpqpulz4GXtixs3s2Yt7t/OwFWMipKqftJy0mRILUp+X4zrSH17SmbS6huYBAG5/iKsGSa/3RpXUpcCbq8UvDIto05OXmeR23XzucH7N+0Pen/Z5dzOCVsp011vTO9MgCTp/s1xaLeIA+rrG5gEfrkBIpjQtH2h0zpT1j+GSqUecj3g6+PTvISfn3+0/hg1NXX1IeqDVVS4uLiaf1VQUJAQn5CYEP8m7k1MdDSTyczKytq3d6/72bN79u6dbDiFFUeAIEjXoBrWPov60sv35ZeGT4EXHpX/XkmMzOungzNbVAGRdRw8vE57eq4b3okUEePTtNiwx3poq57mXSqhI2Rtey+vk16ea/+JaZB6F6KC3dblWryEulcerlez23wRixc9PXUkJIsmOG7qaAFC/dt7tzNaXCf0lPikKkzG0Ey30z2HMCIRgFlPo/1mNSJGIAAwy0tLvoZDr6muYzansFjnAsYIAMAsLy1tLqWqhsZszmDxnNCzwSl0AMD41Sz3X9w5hcIs/dyVo8MExpnoCRDq3967m94yjk8JSVWYjJHpqD7a5er169cmhkbN2aqKiorrwYORMTFHjx9fsGjhsOHDW2arACAuLj5p8iSH9ev9LgU8CQ9fvHQpHx8fAJSVlq5cvtx+7drKykoWHAaCIF2BEtY+Ci8MuRjOlOAmMIvDvAPTGD/fot2S8kMPHr373eQ8vApjjcYo8Ha6EAL2fXOyrpbQrn9nGqTehzxkxdkzq7WFKx7vmO8UkFDZKouk5T0/67z7zdA18zW4MeFpm5wni+JvzrsEpDSN7IQXPTh/PW+g3Q577cbkgllLpTEBaNS6r9cSk1pLYwK9rq65uSdJUFAAY+THRXwqL4m/ERxdigNeR61jArOOWvd198zaOhoToK6W+kNB9Y0/Y3zS0gIYI+vGkTNhSRkpr24ddnKPrQOoS3p840VaKUCnAsZ4ZaQFMEbmzaOnwpLSU1+HHNl4NrYOoO79o5DYtFIagZMt7dKBK2l1jWv3ExDg6DdkZAfn88ejw0SmOW+aJMp4c35vizjun7+RO9B297qRXB0U9s/ycHe3MrfIyswEAFlZWb9Ll0Lu3Da3tCBzdKr/mZS0lPOmjZGxMY4bNrCxsQHArZDQKRMmJr1P6tGwEQT5TahJQN9Un+AbUDL16J6ydQv9st8GXIyx2zvqV7788NKow2t33C9Gk/P0URhFz97n9uirHh4Bx6wnXtQYrasqLUiqLcrLyS3lHDbP/vA46cYsgiRrfjyQ96TL0eNzLKIMxw3mq0h6mcW79EKA7VABDICR+9THx/tyIh3oycH7drPb2NqIJ3pd8rtfiAMzxnPzQca8BZbDhDDyiGkmA0MuvDxiNvqmyXaPvbXPvd0D/F83ACPr1oFd3LY2CzWKAr0vXkmgA/3Ttb172G1t5kgkXvT3e1CAAzPmwsaDjAULZg0XIo9ZsXFW0p6r0aeWGJ/hkTd0POQ0I9vOu1aCkfwiQW2EPOVnAQMAAMfoZZtnfdh1NebE0mmneOSNHFw3Ts+e4yMoiSfHJqgqyQpyi/AU+a+yjhypO4in6OXzzHG7XS07OJvfHd1+CgaAyVoev8R3ar/bCTuzqCnjB/NWJL3O5Fvs428ztC8Ownr65Kmjhw83/t9u7twNG505OX+lmpmDg2P5yhUGEww2ODi+f/++uLjYbs4c34CAwSqDuzVeBEG6DaE7euAif9TWzVuuXLoEAMlpqUTirzT+w0tC7S1u611xN6v2tDZxfU3jGeNy77y1ZOvvP1ppypvoqKjIJ08r9E/sHRJ57JDXg3eFTGH1qU6um41lSYAXPz3itC/odUoxlVdZf8xAbpKskbO9Plv625jo6IhnzwuHunguV2p6JqpJDjnncesjnZur/nNaZp2cieP2ZXrNLQGrghcM3xguvyokdJ0KiVaa2tUS8OIXvofOhVf14yFQy8trahgqG/y36kBp6ptW0yD9fDqlJoySWO+jPvENxJLEN4WC+rZ2hgrcBAKnlLqmbGeHSvFwdz/oegAAHj198tcNpmM50zzu9esB8gPCHj/u7DY4tSjl/aec4koakUdMcYiGHF+b1ya9Mi89u6yBS6x/f2GuX8q46opTU0vYpeRl+H+zmQdOLc3JKqDxy8mLcRNpJcV1/MJ8Pz7C/yxgnFqak1lIE5CVF+Mm1pUU034ohVaenZ5f20+iv4zAz+sA2z06emVuek4ZnUtMTk6kCycuPS1tksEEANi4efOiJYs7vV1v1JytcnJynjnnPnrMmN8vk06n792129/PDwD4+fn/gZx1zCi9/Lw83VGjfAP8WR0LK505dfqImxsAPHkeLi0tzepwkG6Aalj7IHrK5YsfRjnuF8WIopZ2k87HhZZEeQckmDsNafkVyShPfR0d5ud5N7VBvHLP1rcDNKcuWT449LxPlN8ONy3t4yYUTHjs+otasouHOT2XnOhw1H4wCQAYhTGvXzy87B3yoU5Z5es7Wrz4prOdY7TOyfDjRtyAF4esnLJh5RaRB+csxH785mWUp3SxBDz/2qZlZzl23XefKgB4RbTrvI3V9Y2THrWaBonx8+mUAADw0sfbZ6+NN74SvE6VrfSBk9mKXStDlCeaaqvqy3Y+Ye1zME6RQcNEBv1sNRKfpKKa5O/siEN4oKrw7xTwFcZJkVWiNP1AFhJuO5v8WcAYJ0VW+WspHELCP47PShaQURbobFDtHh2JT0qRT6qzxfx7Avz8m7PV8xe9Rmprd0uxJBJp557dGJHo6+1dUVFhN2dO6J3bEpK/dYUiCNIT+uA7pT6v8r8LwZjpXB0uAACBifPNB5KAnnLV60FpqyaIRLGRVmudZqmzAYF72IrDx7cssZ41f8uxdWP6McteRic0tF04EMW0Z63eYaPVqg8VPfdDcgXwUijsAAAYZdjQgcTKqP8ia7qnhPr3L+IqaeWllY39W3RWrZxCYTIbp0HaPudbdy6imLbVmo2z1NiAwDN82bFjm5ZZWy7cctRhTD9m2avIxKZDon+6dDQomzJcV5EMgFEMFpopkZh12CDrzSsmoK8xBGGBzIyM/S4u0N3ZarPtO3fYzZsHABUVFRudnNGLRwTphVDC2tcwMoK8opVtLeWb3teyD5ljo8sNzJJHF4PSf+h7RWLDAICH0mLKIDlhIv7lJ1MGEdlavw1mH7L89EU/jzWNff7x2soqGhPqS0vK2+3s1aUS2OTk5dhqIvfPXXz0YXotAO/ETevHNlV0/TANUjvTKX1pnk6pISU5nc6sp9U3fmeRBqirCBAYedlZv9EzDUGQX4XjuJPj+rq6OgDYs8+l27PVRtt37hilpwcAUZGRl/wDemIXCIL8DtQkoI+pjfH2ewOiwvsdw5uX0Wr6YVBDexvgHWG3V79fxwVgvzT3EMY/SFeXUfHhvuflu28reSVpXwAAZ3QhBeyoBKLC3J3rYxcdeP7kxPKoq9qzHTbZm6nwdfph7LtZkDBBigCGF31MymPoDSACAJmdnUAUkpZmzVihCNLHXTh/Pi4uDgAmTpo4w9S053a0/+ABo8lTaqqrXfftGzNWHzV8RJBeBdWw9il4/g3PBxRbp2UzjEyMm/+ZrnCao8oOeN7tCzfzemiaHOqn65vMptnfZzfefOT47kU6wl2eFbHDEjjVF3mG+m6eqSbIKIjx3jDbYufj4l89EvKw6dMHsTck3AqOrwUA2qeYuCL+sXNnKqGnOwT506hU6plTpwBAQEBg7759PbovCQmJrdu2Ne707KnTPbovBEG6CiWsfQntja93oqbNUmMDg/Et/02YsWb5FGEC1ER5+7+ldf9+8fLHOxZuvsWzyOPw3JFinRossUsl4JXpqZ8JYjoLDt8Mu+FqqcJD/XRp/7m4Xw2XrLX2zL6pIp/OLbJa7Lhh9YFEzV0XDs9CFawI8ueF3LhRXVUNAKvWrKYICfX07swtLVRVVQEgNCQEzSaAIL0KSlj7Drz4jsf1GgPLKcI/fOqYwMT5ZgokoKddO/9d36ufIWJEAjDrafUdbFXzNPhOLlNMTV2sKenrco+GjkvAs2+5B6U2zSg0a+/F3ZMpzNLPRV3dSTNaZngYwyY07pn/0X0HPPy9XGar8f1yYQiC/DpfH18A4OLiMjM3/zN7tJ07FwDq6uquBgb9mT0iCNIZ6C1nn/Hl9QX3p6BzUrvNRqrsgyeMlTn/Kb3s4elzL8Zu1m6cYopJpX4/ZVBd45RB1AYATgAAEkWQH2PkxUUml0vjT599GTNDlwKNcw9Ra6mNWSyJi4udwMiJCHu3TH04Hy37sd/tZDpA7Zca2uf8WiEJIcL3kxXhXSpBgIstLeDQZaPTtvJkAIxbgJ+z35AR6i0K+lZyx9MpcQIAnhu899B/eRP13qQM6y/CX9ePg4uLlwvN7PqbqJ8TY8KfPY+MrRi+49AceSIAnn9n2+ojSarr3XcYiv5bj87/8KH9US9iYz8lJwOA6UwzHp4/NF2dydSprvv2lZeX+/v6Lly8iEDocvOlfwD++eXtx5++71tLABKXoIiYmLiklJSEcL/W6QNe/u7BvcTyDus7COT+etPlCu48Sf3yswgwfpXJhkMo6K8H+QYlrH0BI+ex+6kzviGf6pkV5/ceKTaxttIR+/aGGy9/ff3i9Zu3shkA0PDJe6lVgeWiFfYjii5f9LmUSAf6p2AXF3Zba1vx9xcCAu4V4MCM9dzohs9fbzUcyMOnThsY6vny6PQxIVO3nz3In//Uyz/AP64BGFmhbju559guM1E2WO5s+GbnXY/ZercHqQ7Rs1y6YW7U3KPxXqvXchzYPz3F26/lZEWzjXleBHWlhIPLZfqJ8BT7L7eN1NZW4il+EZ45bu++WVKMnGd+vt+XfPmn0ykJkjg42RjpN7bPu/H1DBHJfGIKOuYOu9aMQenHL8Erkp7evebnd/cjVUWe3vis0JD94nlCWn7Fyyy6oei/9UDwDx/aH/Xs6dPG/8yxsfljOyVzkGeam5/39MzNzU1PS5cfKP/Hdt17YEKqY8byvLy4ab3n2y9AENCymmek0I9JLc5Oeh4UE/0yvZZXYcQkiwUr7cZINw8ho6Rr0C8hcMe6o1EVTAKPipHZaGmOr9k+3lCZGXn3ccbIgxMso/dtf8CtZzhZqz+Fh0yoenvV41YylcCvNWuxsQIHg1pVlBZz7+5rsu2giUMo6K8HaYGJsJq/r19w0NXa2tpOrr9l02Z5WTl5WTk6nd6jgXVaXfGnxA9Z5bQOV6KVZyWnfK5lNP7EqM758DG7sksH8NMS6sqyPiQkZZXVdaXUH9UleztvPHHlWvDV4MDLl3wunj99ZJ/T4mlaiga7X3S+lHNnzzZ+TBkZGb8Xz++6dvVqgJ9/VVVV5zexMJspLys3cfz47oyD8dl3toK8vMmJjw1NSyo/Pb3zNKWyO3fSFfSMq6eDM7rhj4iecfVMUOuCWHxo36SlpjZeh57nPFgbyadPnw66umZmZnZ+E5vZ1vKyckOHaHR+k7KyMgaD0fnlbXr86FHjSbt+7Vrnd91Djh4+EvbgQUNDw89XZTKZTOZo3VHysnK21nO6Yd9ll+YryMnLKi+7Vt1ycXXK/cM22kqycgNVDLfdzWkVWe3tNWpy8rKK8/xLvi+NGn/MbJ53xu1141ffKmr+LGhx+wwUZeWULDxzmpfRs/zmGu6K/K07+emTpxo/xOzs7N8p5/cFB129HBBQXV3981WRDqHqItYbP8Fg5/btOsNH7Ni2Lel9EqvD+QVkIQUVpZ9NlMnOL6M4UISz6YrDuKWUBknzdqkj009LIAvIKKkqd2b+yw7URB3c/kZn/cpZZjPNZ1pazbabt3CF/aYDHj7r9f7Sh/1xBgZHDx/WGT5ik5Pz2zdvmCwbFJ2AfXe/4VXQN9IfyMuaaPC8ULcjd3O+/PbZwPNuHTh6P6e2VUEsPbTeSUFBIT093UB/rK31nDu3b9fX1/90k8TEBABQVVPr/F42OTlv37oNx1u9mS4oKDCfYfoo7GEnC1FXV2/8T0J8Qud33UP0RustX7J0jO6oI25uuTm5f3TfHLw8HABAInO0ulVzD5zscDFwv4kksebDpXXLTryhfvsdxsfbDwMAIokNvsOhMstCpaGSxjXMeFyLnhRfG120aHtBlJpiqEbogQ7ALDHOYPyhAwd1ho/Y7Lwx/t071t2B/3ooYWU9cXHxtfb2NTU1AX7+04yNTadND7xy5cuXn7bxQXpC1UOfqzlETvbv/jLwwog3bMYzhrAmqN8jICDgvGlTXV3d1aAgc1MzE0MjP1/fqsoqVsfFSnhp1NHVOx4U/fYobnhp9OHVu+7/fkF9wrbt2zk4OKKjotauWq2nrePqsi8jPb29lTMzMxvHB1Afot75Xbjs3/f61avtW7Y256z5+flzZllNMTKcOHlSJwsREhYWFxcHgMT4+M7vuocMGz7czHxmUVHRmVOnx44ePd9u7v179xoa2ptrsAcQCATCD6kCSWbG3u1TxTCgvb948HJ2yzG12230i4lZrV+kMnLBcr2fDPcNmODkJdYqP6S8fydBQUGnTRupVGpQYKDZ9BnTjI39ff2qq/r0HfjXoDasvcLc+fOuXb2akpICAAnx8Qnx8S6790ybPn30mDEaWpqioqKsDrDv4JCRFSnz2myHJ5rqqylIi/SDmoLkF+ERWRTTbWvV/tI6VjAznxl05Urj6OvJHz/u2r7D1WWfkYnJ2HFjNTU1xSUkeqZnCS3rkee5W2kMNry2uhaTGyNW9+1XpSlvYqOjo56FFw7d575CmQQAePFLbzeP8Mp+PBi1rOxLDT7Y2W+zbmN9OaPohf8Zz/vJ5dWfs4owOZ2pC+2XTZEjVeW8jXz2/Ol/TxOl1vpYFLhuPf2oWHb+iYtrh5EB8Ip3V0/7RBUxoSortYhnxFxnB8vBPAB40bNj6/cFf6xhMvIfudln8rDJGDmtmyKGAQBeER902jeimAlV2amfeUbMW7/eYnB7FaV48bMj612DkmuYjPyHbo6Z3GwyxusdxrKltT60uuLk11HRURFPn1Enn9uhEOZ2xDcsoYApMnT25sPrDfiywjxO+d2NTCggyOgt3LFv4VD+5uQAr3gXdNY7sjGaIp4Rdk6O5ip/cbWthKTk6rVrDh04CABlZWXnPT3Pe3qO1B5pbDJVU0tTQVGRRPr2lZSVkdn4n0FKSp3fBUVIyP/yJVvrOVs3bd67f19hYeGcWVaGxsbrnZy6dJErKSsXFBRkZGR0fpOe47xx48OwsMb0/Xl4+PPwcIqQkKmZmY6OzhBNDX5+ftaExT/e1kz+1pkU6uv7YblzF8l28MIMz/U58nic/VwZIpAk5eV+XjbGL/8vtR22sLS8Ghj49s1bAPiQ9GHn9u37XVyMp5rojx2rqaUlLi7eN/v2dVUfTVg3ODi+e/eW1VG0QqVSW/5YW1t75fLlK5cvA4C4uLimlpaGpqaGpqaKigqLAuwj2Ic6ersLewY+fOR39DaJV1hMRmnkpGkrDw+V4PzFEufb2bGxsb6qgEajfffjjWvXbly7BgDCwsKaQ8w3gEIAACAASURBVLU0NTU1NDVV1dQ4OX/1UFvvMNln2cLz3I4Bh01l2AHoubec7C58rRZilKfGxT6+4hWaVKek0viCDM+/unnFGY4dD91NBACviDlos7G6KWR61jX7+Yerbc6d26nGixeHrJ1if3J1KvPGdYvyJ+EPg/1uJFTzDg3aeUpQVF6MLa+6hkoHIFdGuy04WL389OGJEiRg5F9baeZkk0UL9rQdQBTRd/DVlFkwfGO4xIT1R9epNN8GK6MPLnCrXn7yWNM2q6c7z82iBXnZ9G/zuxgT1l/voyWzcKRTuMTE9YcdBpMAgFEY2/rQGMXJL6Pv+Hk+zGJI1u7cKjtg2LRlAxWDPS5FnttoXz6ZuwxU9KbZyVB8Lty5e2jXQN3rDk0BVUYdWnywaumZoxMkSMDIv75y+iabTNo1rzkDfmVMYI9z7kGBV35hw+7FZDLZ2NhaVhDGxsTGxsQCACcnp/oQ9cZ7naamJrWu6ZbIzd218QEoFIrfpQBb6znr7R3exMVNNjTc4Ny1bBUA+nH3A4CKiopJBgZd2rCHkNnJ1VDd/GNpScl5D4/zHh4A0H/AAA1NTS0tTQ1NTQVFxT8YFGnQcC0KlvK5/sPbd3Ug26raFMcZdDodAIBRV5by6HRgnPy4PxhaC3Zz5vTOO/D14GvXg68BgIiIiIaWpqaWlqampqqaGgcHB4ti7O36aMKal5eXntbuq6jepqCgoODOnbt37gCAiIiIqJgYqyP6p5Gl9Bfv0l/cbeXlZOd0W1k9o7i4OOz+g7D7DwBAUFDQynp2Z9oXdoye7LXtwEv5jQ+myzRWS5OkjFZZet1ya2wTSBQbOWutIiPu3uaor1s0JL2Iq6Qpl1bSQYCE8WuvXDPFkwkAwMi5vGPXY/G19+eq8QIARhk1WVco7CGGMYmSo+3sh1IyH626U1ensPCogyYXbGssjfb6zM5bsg53JkqQAACIEkYzx+wPu+nuFWOxd1Q7Xwe012d3h8rZ3/u2jZm+68Pr7hejLXbrdbph9A+HRpTWs1knXP70yfGP/DprT9irkgEA1yOljtsdk/hZ9eF5KzEiAEwb9OX9rPMpMdGFuIoUBkB77b4zVNbh3oSv0RjO1D/w4MY5r2jzvZ2P5puy0rKy0rKub/fnUKnU5uSVRCKpfW1Iys7e5WyDQqEcPOw2w2Sq4qBBThudf6H6io2NHQCYTGbv/6bISE/PSE9vfPiUHyj/pabmj+2aKCIigMFnnFZRXgPQMmFteOk2dcLpxtPOqC0tKmvQdP5jYbXW++/ARUVF3+7AFMpsa2sbW1thEWFWx9Xr9NGEVUlJidGViez/gMrKytSUlB+XYximrKysoaU5RENDS0tLVk5u25atCb2gZRXSSSqqqr3hibmmpib548cflxMIBMVBgxqrVzW1tPoP6I9hWEx0zO/trf71pctv6xUdx4i16FvBw83VKm9o+f4XgCQrL8tWHXnAZnH59m1LJg3gmbTRAQCAnnYjKKZ2wIpREk31ipiQybH/dKrZKPwkAACMk5NMIJAHaypzfSuMFnMjJJ1GCd6+5k7TEmbVpwYiofr92xzGKIU2ayhpscEhGXWUa9vW3G3eJrmBSKh6/yabodf2Nu1pfWgABBKJBEDgERRk+3oQ/WUEsNh6AUH+poLJ/ftLESGnuqoKB8CAFnPtVnodJXjrum/RfKITCdWJb7scDQAASElJ9YZnXRzH3ycmtvlEJC4urqGpOURDQ3OolqqK6tMnT1YuXw4A9fVdbq+Zn5e3atnyufPnx0RHN7YNwL7v8fcT9fU0AMAwTFNLq6t77wmFhYV5uW30uGIns6upqWtqag7R1NDU0hITExszSu+PzdGF11FpTPh6fbfENtLp7vlZTc1X8Mq3p5cdZdU7b1U1NTL5t3ridoua6urk5OQflxMIhEFKShqamhoaGs134D8f3l+hjyas23ftZHUIrdDqaIaTWnUIEBYWNre0GD1mjJq6eje9okVY4/ipk3JycqyNgcFgmE6b1nKJgIDATHNz/XHj1NTVuLm5u3t/2a/eFuBsymIirRKrDuu5iArzdzrELD4U/vTUkqhrOtbrttibqvJiUJ+clEEnaFJaDiFO5KZ02GyPkR3/voSguHzvkbmdHjiXkZ3wvoQwaNnuY21vU/ns1N5rn5pTJzZV20NLhney7LYQse/OBqlxQWMX4sYjGLTE5ZhdNw39a2Nnt2hJ9704+FXHjhx9E/dt2mQSiTRx0iQjE+PGZKvlmhxf73td7Z6Sl5s7x2q28VST9U5O5eXlze1Zu5QHVFdXAwC/gEBg8NUu7b0nFBQUTBrfqmVC/wEDLCwtdHR1BykpsbOzrG19XU5uCQMAo0jJdHQPwfjULUw0w1iUsZ48c1paWpo1+/6KTqfPmNrqDiwoKGg2c2ZP3YH/UX00Ye1tPD3OZWdnN/5/7Lhxs2ZbjRs//odnVgT5RZcCAppHTNPR1bWynj1h4sQerHVgVFXXMAGvp9UDcP189Sac6gu9QgZ7ux04G5IY7e1sGZVwwn/nhH5MwIFZWvQZhx8nFW53/1U1TLyusACHziesVVU1TJxaWNj2Nji9Ijc1NZX+9Wc2oR7t5NsUzeeuHEHvl5mZ6eHu3vh/WVlZK+vZZjNnUoSE2lxZ/muvm6SkJJNpUzu5i8Zs1WTaVMcNGwgEgqCgoN+lALs5Nl3NWT+8T2oZA2vt3+vS2MmBnZ3d0MjIynr2sOHDe0E3naqYZ69qAAgUnTGaHd9MMLE56+z+UFS9UYCf38cPHxr/P0pPb9ZsqwkTJ7LwSeMvhVIi1svJyTlz+rSYmJjFrFkWlhYSkpLdUSqt5OOrqIiIiKjPqpsO2in8yx80o/TNdZ9rMWm1AmpTZs+b1L/szvYVRz6qrT+9y1AUA1rxx9eRkZERUZ/VNrrO/adPRDtKiosPH3ITpFAsLC0sraxkZWV7fJdEQUE+AmR8fPuGajmuk+8H8Mq0jDo5eZ1FbtfN5wbv37Q/6P1ll3M7J2wQFqZg9NTwJ+mrVRW/fXx4RUZGQ3/5tpt5EQUE+QmMxIjwdEcNxZYfOT0z6gU+QndAG5dB4zYJkc/T6EMGtd4m8gVzpG7/6a43pnfuULoBUVCQj8BIjAxPs9f4PpqX+Eidto6gl2Mymbt37GAymcZTTaxmW2vraHeccklJSwkICJSXl3epBdSeXbubs9XGJYKCgr4B/nZzbB4+CJtsOKUzhRQWFhYXFwOAmnoXhoDtIZEREXfv3Bk4cKCV9ewZZmYsGxPgB7QkH497JUwCz9AFi8ajKsL2FRUVHT18REhYyNzCwmLWrD9xB/5H/TvP7n+vl7Gxp86ceRrxfK39um7KVgGvTHpyK9DrxLnr4R/Lfrf/TO9WGeVqtzVZd8OakaXXDqzeEVhYn/UyMj494fnLbDoAXpn0362g88c9gsOTS//gyIW9SWxsrOvBAxHRURucnf/QvZIoMXSoNBH/fO98YAb9u98x8bbHLMVzQs8Gp9ABAONXs9x/cecUCrP0MwBZTXcYP6Eh0Xv/5ZTmbra01KsHfN40XtlNo3C3HIybKKM7cgCpIdH3wKXUb11z6blhe9xiMNHGTkwYEYBZT6vHm7fR0R5Aakj0db3ccpu8+3uPRGMi7eeHGLGxIFq3DsVKlNbV7k9qeO/jeiWl5RE82HcouukI/jbpaemj9EZHxsYcP3lSR1enMxWEjfliYmJC58daP3L8WMtstZGgoGDQteBJUyZ3spDmFFldnfVDLyclJQVeC773MGzeggV/PFvF8Xb6etDSb25deeptHZuk8Y5DS5RbXJGMxk3a3fIH9AYGADDpDQ3/6ID6L2JiD7q5PY+KWu/khLLV3/FX3vj+MWbm5t1eJsanabFhADPpwebn3V52r8LICDx2OU1qrzqfrNYO19pHpHFCHDIOHl4jCiT1hrMDAJ/mrA0DICnMOeL7LTODPV4OW2Ih9ytDBP1VjE1M/vg+2TVsF40O3vo08sDiVV82LJ2iIsT4nPA4KpcJjIL3L5JLZJWFuIBaV8cEJpVKxQEACJxsaZcOXJly1kaeAwDrJyDA0W/ISADgNlg0T/PRkbiney1nvjI3UhduyH35IBqzO3tGEgCAUfuljslkVte0zIxJarZrTELW3Xy2y8I82mzKUHGsPCMu7FnN1JOe2o19mUkUQQGMkf8mIrlcGn/29MtoM13VuauNb9qHPNllZRptajhUDCvLeP3weY3JMS/tDsY5JwkKCmCM/LiIT+XS+NOnX8aY6VC+OzQAZl0dDYBZV0v9+p3MpNJoTGY9tTnPxb9Q65nArKPW4Y1HMHeVSYjjzad7LExjZhppiWHlGa8fhdcYn7gw8mejrvdO8gPl5Qd27Q27qpp6+LPw6qrq94mJnZzviour7TYo7S1vU3Rk0wgPqr2ghnXxkiWs2jUjNzuPBsCkVZRVfW2RQ6/MfPUw2NfL90EG2yBDx81bV+iJtriH4hXZuRU4AKMgK7MeBDrxzrs2L68EByB8zsmtB7l/sb9G5xu0IB1DCes/jPB9r45/UMWL6IQ6gj5GAGAfMHlZ452dV2GskUKLlbAfp2lpnE5TwZP1nVD+UUQZq8Ne+IH9Z0MfuK2870Ygiw233TRZlSeiToLx/n7UUDLfi6DLfq8bgJEdcnA3t43NMmNebhGeIv9V1pEjdQfxFL18njlut6slAAC7ytKz54guez3uvL/j+f4OSVDVzNFtu1V/IiP3qY//laDnNQAQcc75QIHxjHlGg8gAAJioietFOv9Ot8AX97w+3AM2itp0+1OHrDW+vrokD5s+VT7k/KvDM8bdnLr13AEKBiBqss+Hwbf90NXYexeT7gEbRdXU/sSR2UM6fN1JHjHNZGDIhZdHzEbfNNnusZ8//5mXb8tDm23IGRlw8XoKHeiJgbtdSHZ25oKvvH19HlcwASI9NrrVz5s/sjrU388vrgEYWaFuO/nmzV8+WUHU2NWHwb/tcOCL+xc+3Ac2QbUZ604dttLoQy9fJ0yccObUKQDw9/NzPXjwz+y0trb2+vXrACA/UJ7l3SVZhZEXeSX4SWzY1QQ6ANAi9hgbXhbjpNdWV1RUA5+00tApOwPNjYZJtBj+BC95ef3yf7H/BUfTAICR6u+8lmY0crSp7fh2ZhTAK+Ku+T18GXn7cTUTgJl3Y8cyMByubbRw6uB/MW1FugET+dts2bRZXlZOXlaOTqd3uGLl1fmK8vKGRxMb/lBkf17Du8OTBsorLQ2p7WitqsAFyrIDTQ6/bzoRjJKog6Yaci2W9IBzZ882fkwZGRk9tpOeYmE2U15WbuL48b9dUkNFdlJ8Uk4FjclkMqqKS+p+ukVdWVZS4oessh/WZHwp/BT/JjG9+OdltPClKPV94qfPXxht7aooJTEpq5z2wzafU5MSUtrepk3UopSEtgrqFl+K0t4ndiWaVtJSUxuvQ89zHt0c2B8xY+o0eVm5wYqDysvL/8weA/z8G8+Yr4/Pn9lj9xqtO0peVs7Weg6rA2Gx0ydPNX6O2dnZrI4F6R6ohrWPqc+L8j3jH1PGzgnV+VmfSQPHWy9fNFWZFwOoen1xm1toWg2TSFGdudLekif6+JkrkRk1OIFdQmOS1aL542Wo74JPuF99+ZlX337/upHM+PtBV4IeEm0u2NSePuB+61VWLYeU+gRbR0e7Yc1jENV8DPVwv5VM5+Zq+JyeTpWd5rh1hV7TYEftTcXZ0RSdzeifAve6R2Qk5TOgIfHShjX/YZjgqOXrJxATYqKjI549Lxzq4rlc6ccLvO3pNCeLYR1Ny8nocApQpH0kPmnlr29VMR4hys+3IAvIKAu09QuMS1RBrcuzFHMJyw9ubwBusvBAlbZ+xyUiryzSlZ1wCA9U7bFRvrmEB7R7BP8+27l2To7raTRa4OXLS5cv7+ndMZlMPx8fAODm5jabObOnd4cgSOehhLUvqUvyWb7IE1vhdcpGkRMAL40+uGCZveXTxDM+m0YL8A61s5/4yHBPLFPfynAohQMzWb+hPN5oV2Sd6iS3+eNliADcQ0xtNYPDcxcsHpHnu367+/34onpOFWzLEXFlg8VOYzKeBPrdD9o5L6nU55LjUC4AvChkk41jjO6JJ6eMuAEvubnKyGHVNpH7Z2eJYe1OxdnBFJ0tkRRn7Txi+tJlcmRqoar1oRPTOAGAURgT/OLhZe+QD3XKKm13gmlzOk2ADqflZBS+a38K0J76tBAEAWMTE1eXfWVlZWdPn5k6bVp3dUttj6+3d0pKCgCYmpn16/d3NhZGkH8USlj7jvqEM84HI4RX3J2t2NhCCKPorNtm9dDqgtf2k+PvbtfhJMqZzh5/6sWdV2FhRZZzxDCi9HSbCaejbqZGRxWuUpTEAPCC/543TNk4vB+ZZHfiioTjmOXXqjCtNSfWDSYDAFiY6u60mOeTeOHwVUu/udJEeu6HT+XAS6GwAwBggsOGyhPvRT+OrJk1k7fdqTjbnaKzE4hi2rNWD2K8ubsl6ucrt9LxtJztTwGKIH0PI//ZxYAXpY2PhAS2QVPXzVD+6Ua1b4LcwzKauo4TJcbMnzOS8vNhashksr2jw7YtW2tqajY6Ofv4+/Xc+KOZGRmHDhwEAF5e3mUrV/xeYYz8J96XX5Q0n6P1DjN+vlHtm6tnwjK/niNx/fk22p14KYH0Wr/yl1L7NvDsw8ymPqREcX0HO+0ejfEvghLWPoMacelKUoPwbA2ZFi3gOdQNJ/b3dk9/cDPWWWcsGQTGm08Wu3cl5uatbKvFckTgkBAXIELJqxs3U21WKpIYOfceNRjsaHrRTuTh4cKAJqso31zLyKe7zE47cGfE24ioqrmzBNg1lp30HQOqw9kBAPDayioaE+pLS8oZwEtsbypORjvLO43I1vWO/52YlrPNKUARpA9ifI69cs4jQ8xwm+sSXXEe/k7N+MohP8bUbEhVzuOTGw8/LVPnNrUe2blkbPacOffv3Y+MiIiKjAzw87exs/2t4NuB47iT4/q6ujoA2L5rp6hol1uftMYoir3i4Z4hZrR13zJdMd7ODUfFIT/abOaQquzHxzcdfVKmxm2KEtZeAy+Nu/MwqerbizsCJjHCbKxC07cfIyfqZngGrbFuBeMZNMFkqAjW/l9KzfvbV54k5WQlv0+XXOq/e2KLbmYc8vqm3BpVOY9ObDn8pEydByWszdA4rH0FPePd+zIc4xMUaJXNsSsoDWAHvCwjtRgHAOAaZWkygFj/JjTkEx2g6vmlOLkJg9ka3odcja8HRubd/4gTTfp/LaGNqg5MaNhQeRI0lJWUAQBg/IqjdOWZyQ/O7Vi3zP7gjU+1AIA3DsRJVJi/02GMCJ779NQSw8mzd11LrOpweU9qmpbTYvexE8dONP476fXg7ce05Gurf2HadgT592GUUeaz9dQU5eVEOvXqHOMV668waMj4eTOGdvmRb//BA9w8PADgsmfP40ePuhzrzzRmq3FxcQAwcdLEGaam3VMuRtG1mD1KXVFernNtojFesQEDFTXGzzXt+jlCehZG0TI0GskWfXL79q1b91zJ7m8wY4zCtxZhRGlto7EC79x37Dp5r5BPcaAQ1mLLH/9SuFUMLdSrw0MfxxMlFVoP/oXxiA0YOEhj3HxTLXQRtIYS1l/FKIq+9azN31S9uvMwvY1Gl6yF0+rrmYBXV1a1Hs6ZxC/IiwGTwWA0Phqyq5vNUGOnf7hzI56Wd+tqnr79Fmsdbkbm7aDoyrT74dyTTaQ6TOAwAQEeAmB8AnwAAED9dG2zubHDA3ajjceP71yiLdQyxeVUX+gVcnHrTFUKXhDt7WxpsftRcUfLe07jRJglhYU9nhr3BEZR1K3wvLaG6a58dTes912LyL+BneOXGnAT2TnYuvpSX0JCYtee3QDQ0NCwavmK7s1ZG7PVmzduAICoqOjeffu6r2x2Do6fr/QjIrnr5wjpcSReBSMDDQ4AAo/ScC0xztb5E8aOlxc3DF504oyDsRJfy9+1+ZdCZKNWVeCkgTp67XylYugi+B5KWH9J5Tu/LQffiaq3+UteFfnS81tORhR1dqKPP4IkLSdFBrwoOamodVJWX9/AJPD3H9DUcx+I8qZmw7kYmXeCAnxDCMamA6VNLA2EmIVhgRcCowWmTPrJfO54eVkVk6SoocUPgJc/2rnE+RbPknOH5o8U+/5PFq9MS/tMENNZ5Hb98fV9s1R4qJ8uu5xrf3lPapyWMzPyedp38zLRMyOjfpirqVepivfd6vZWVE28rZsen4p86YWtx3vZtYggXTd9xoxde/bA15z1duitbimWSqU62ts3Z6sBVy5ThIS6pWTkX8QuKSFMBOaX8orvZ5DE80P3edUvOmw/krdTJdHiY+OqMEltvb44X/gvQglr11W9PrF0a6K+05IRbQ6+A8CpZLV5Vv3xZS7/FfeeCjtMcLzxGAFC/Zv7dzJaZC/0lPikKkzG0GxUcxsaTNJkpj4/M++aW6i0qZEYBnzjZpvIYOX/nb0tZDzxJ90kGAXRL9I5RprPUCAB1Dy7eieXKaaqLtaUTLXqO9XeVJztLW9fp6dtbPb9dJqdmpazjSlAWa3q9bEl2xP01y8bIdD258I5aPamWfUnVu550ouuxX8Pnn93s+kk0233P6Oz3IPm2No056zr1qxZt2ZNRUXF7xT4+tUrkymGt0JC4Wu2Kte/f/fEivybSBKSohgA43N+QauKDDz/xl736jk753c2/aQnP48uAMpIPdVOzAaGNEIJaxfhhbe2rAkSXeY0WaSjc8c9fIXT0Gjn9QHf19j9QXgdta7FVI+Y8NRNmyaK4m8991z6Ojs5XnT/wrVc+bm71mi3bCwjYGAxSRRjShjO0ucDACAPmzVjMBsuqD9t7I/PjnUpb95Vf93l5wdHfdOGrt02W4YIACQuTnYCIyfqwbtKHICa/Z/PnU90gNqaGtrn/GK8cSrOtDoAaDkVJ6Gd5W0eY3V1DQ70ksLP35LwpuOm1n6dFhP/fp7MVtNplsTfCI4uxVTnrjaWIJY92WVlusLl5IULpw9tXWBk7SU4f9nXaTkbpwCltp4ClJXwwpAt666ILnGe1PG1OGzVBq1IZyd/Fl6L/7qG7FfP49PjI15l/fXnmPY54b8gj8NbHdbtvZXdOCl8xZvgg84bjz7uuMEMtSj5dUTYTe9ju/dc+UgHAPiS/uzykU3r7N0e5HRbDf8cWxsX1/3s7OwAcDv0luHESXfv3GlqFd8VFRUV+11crCwss7KyAEBWTu6Xs1VGPa22hvqtvg1nMNoLh1r06XXEwxvex3fsCfzQdI7CA45uWeNw5F73nSOkB2FCkmKcBMCL8wtafGB43g2XszXWO+0Gdra2lJH9PCqDwT1s9DBOwKviQz2OHTnidviI25FTga9K0WNvO1BddJfgJbddXB4Izg6Z3FZFY2W4y+GCxTtniWAAwDl00VyViQd2Xtb3tpX54912GDnP/HwD/F83ACPr1oFd3LY2S6Yqk2Utjgbxnd7rdtLaLNrQYDBfedKrLL5l3r62Q7+rn+unZ2mimMJjpdX0Gp+kONNS996n6aPa6FxB+BLttsBaVEVLvl/Rmxc5EksvnrFSanxm5Bq/0mlK3K577tb6txRVh4w2X77eLnLesXcX167i3Hd4mUzbU3ESONuborP1IeY+9QkIDn5QwgTmG49V64rGD1YzsBpafsM/wP/rFJfcc6xNeF4Etp4CdKoS+YfpNCkYBh1My9nBFKAsgxff2b83jGJ9c5JQW9fiM5ejBYu3WzVdiwvmD57suuvK2Is2f/5a7AvI2vZeXsPzJfVG/O21JTiNyqTIi5d7ut3OSJYzM1wnFXdixe7wOiYuolqFg1i7j0Y4ve5L6QufPSejaKP2LCVUJV5yO/Oc2q8s/G5seZGq1cSFUt1VOzLLykpTS8vJwTExMbG4uHjNylWSUpJzbGwsraz4+X/eGf994ntfH+/bobdotKbndrt58zY4O3Fydm0+UEb2rUOH7mZVZ70O/1AhYevzeLcOGaD8/qap6+7Jbb7tY/XjJnhDXU3JS9+dJ6Npo3atIFQlXDpyOoLar+z57djyz6qzJi+QRDVIvR5RQlKUCFXlBQU1X0fhxvNu7nGn2p2z6XS6CnhxZOQHOqfOKG1uAIxXfay8/0HnRO1Vm1aZ6crxosugHShh7Yr6eJ/T9ytVHaYp/njeqJ/8NmyLHezh/PVaw0QnT9V2dTrnETFzr/6f7uxHlNaft0V/3pbvl5NlJzl4TlpTmZueXUbnEl9gL8zV5t8Gu+ZKX/fmd+EAmITFIR8apa0UjayxwueATklWbhWBssBegrflqSEpWJ18NCU7s5RDur8IJwYAeEDYxFwQV5DiJQLMO3d/HgCtPDs9v7bf3FUyAo3lS7Sz/LtDlBq7wHnsAudT3y1fsHHsgo0tF6hu1l+w+fut++luCg23SC1hl5KX4W9KMsgK07dfnr6+KC2riEkZMEDk26khSo39oVgWq0/wPv2gQsV+elvXYrK/85YXyudbXIuGU3X2O3u6R5jt++PXYt/Ao6BvqMDqILoBxiunPkROVdQ26Ob2l+/iMv67GcTmeOX6UO6fbsgjo6WrKMgEtsGjtPIuuNzgmXvw7KByj9m3XtSLSgh271ewoqJi8M0b7mfOnDpxkk6n5+XmHXQ9cPzosWHDh6sPUVdTU1dVVxMWFmZjY2MymTQaLT0tPSEhPuFd/Nu3bz9++NBcjpSUlOuhQ9o6vzJsEFFm6saTU+tjdxs+/1CnrK5MBgBgVGakFtLqRKltVpdivDJaoxQEmcA2WFcz12v/dW47tzOK5Z5zQl7Ui4m306oH6V0wSUlRDFLwovwCOlBIAHj+9T0etLnucwZ0oTKgKjIqnsauOkpXEAN63pPDOy/12xR8w1gOzUPTob6dsNKLXwf7hr6rILBziQ8ezEHlmGA7WbL9i4726sbtkodcDwAAIABJREFUFKbcUp3W69ByY28F+3p63/1EVyLfOuFbZmOjI4IBAN9IbRXio7DrT530jTrXDPsPIfFJKapJdbgKxiPSehwWDmHhdru7YmQBacV2GvQCO7+M4rdqD4xbapBS6xXam4qz3Sk6u0k702l2eVrO30H7nBgRHh33LjmHY+z6TSYyRMAr3gZ7BL5in+iwZnz71VlAe30zNIUpt0S7dQdTWk7s7at+5y/eTWlQIoee9CubY6srAgDAN3KkCvHRg+vPnPUN+Xr4oJC/HiY0Yqg8KTLee8v9efv3/TxbbUR9Gf6ihjhAvibgquj8nbOVyFD19F0ygzxk+NBf6irfIRKJtGrNGjNz88sBAYGXr5SVldFotMiIiMiIiG+HgWHttRZQHzLEdq6dkbExmfw7OQLjc3xiPoM0SE2dBwAACOxkdgJpoI6uJBHK29qA+uL5yxpi/4E1lwLF5u2ePYgDqp+8+8Qgq/fEOUJ6AMYtIc5HgJLPBfkMUCUxcq/vPdcw9/xsua68u/oSE/H6C0lRV0+0PObsLq9iA+dTMwZ2rYa/T+rLCWvVs12zVobrnA510SenBq2zc2lwMJ3Xwfr1iU8i8nHOCUrfjZrWAP1k5LgbqARxQ1ubcYP4pfmb8gxMWGmgCOFF5JOXdUYG6G6E/ACva3r/eiQ045Oc2RQHqTfHVu59RmUyRFU6fP9an/hfRD7OOVF54PfXIrdMf+6GWoK4sc2c8Ur8Ml8fFTDhQQrChNiopy9phhN6xVM8o+hFwMnzYcnl1YWZRcT+2tMWrl0x+WsFQ31+pN9Zv5gydg6oLsgqJA00sF622ESJDwOglaa8iY6KinzytEL/xN4hkccOeT14V8gUVp/q5LrZWJYEUPPGZ9fB6ynVOLCLqo4ztVlsrMRBT7t/1ivwv/fVYhMd9qzUFQLAK94FnfWOLGZCVXZqEc8IOydHcxVeAABGVc7bqPBnT5/8lyjl4G2e77rt5OMSuXnHfNZqVr/wPXQuvKofD4FaXl5Tw1DZ4L9VB0pT38TEREWGhxdq7fdYptx8U/2to2AtkpzqIH74yFCfZSnf2WBo755HlzDZsORKnbOOSmRo7AddQxqso9OJGa1+jYSEhOOGDavWrLlz+/atkND4d+8qKyubf/tjtiorKzt85IjZ1tZDNDS6Y/91CfHJdIwyWE2WCACAl0bGJAtO2WmnQoI2WzPT3j37eo48HAdxAAAtPiauhqSso9tj5wjpXiQJCVEiFNcUFFTgjIabezzxhectZbvU1Ir29vmLCkx6klCk/Uy31xpHwlC22jksvzGyDi3+0eOsBvL4fhwA5IFma60ibsh0lFXiFR+SchlEKSkptta/4JYa3D+isADnmTBx2shWlREkKSlRjPnuw/tMuoHSv3eqmTU1X3Cg11FpX9vyIF2D8cmpacipiNlevb791ds3GY9DgtgcA0K0flajhVe8/5DHIEpKS35/LUoryz0vKMR5DCZNGzGs1bUoKS2GMd99TMygT2D9tUjPuuZoe6Tazv3sHjUevDh0laHj8dVpzBvXHVRIQPvgvXyJO7bM9+QcRU4AvDTq0KLF9lZPEk75b9LjLU99HR3m53k3tUG8cs/WtwM0py5ZPjj0vE+U3w43Le3jJhSMW9PWadYLE/u75SIq9ouNlTgAgCQ/Zem0mJuJ3LsW6woBQGXUocUHq5aeOTpBggSM/Osrp2+yyaRd85ozgMgoePf06cNrPjcSq3m1AnedFhCRF2fLq66hNuRf27TsLMeu++5TBQCviHadt7G6HoBRnhIX+yjQK+RDndLgbwnS7x4Fyz6bRgRBQX6MkZ+ZWQtDO9cut/7Ds6h8HHjV5qwyEsUAAOqTIl8WYfIzx0j3cMNpMplsNnOm2cyZAJCVlZUQH//xw4fq6uqC/HyKkDAnJ6eIiIiaupqamjovX7e+66r/FJ/0hcmmoa7KBgB4yX9Hz+cY7/M1aq8XZP2H8Mh8HHjVbFYZNp+j2CJs4Ew91Lj8b0ESlxQnQWJDUV5O9jXPC8yFHhZdvMDrkyJiP+M4b2J8tZoAs/TR5dDcyTbd1sb7X8byby7WYZNTHMDBiAg8dN7Md+VgsoLxomnCHd2Z6bm5hQwg8PLz/3BxUl+/iKexq40c/l3zQCK/AB8GjMKcHAawPknoVrSP9zz8rrwhi4mzpwbuOlI6efqCSZ2uikFawYSGa8mTot55b7s3b5/rT7NVAKDn5hQwgMDX1rUYF5tAY1cbMeL7a1GAnw8DRkFvuBYZOVe27vpPYt2d+Wo8AIBRRk3REXrwCMNwAKiPP7Npf4TQqjtWio2VDhhFd91W6zBrz4s7jhnc3qU90mqtZHXMQ5c47mErDm8ZygUA+HjujHGbnr6MTmgwGUsGwIRNVs72fHjqw9O7z2v0J3IDANS/fxonY3lWlR0AaK/dd4bKOtybIEECACBKGM7UP/DgxjmvaPO9emSp0baOQykZD9fcptIUFhxer8kF2wAA6h5uiKukKZdW0kGAhPHrrFo5xYPJBKKYtuXaQXjc3a2R3w6xO46Cheo/+l7KEpYgpn989542c1RngqFnPovIZBD7my81aXozwMiJiskEyTmj/+g4k7KysrKysiZTpwLA6ZMnDSZMUFL+6eztvwgvi0/MYZAGqKsJYHjFyzOOZ+krPHYbtDtUNT3jWVQmgzjAfNG0r+coOzo2EyRtu38szrzc3Nyc3G4u9K+Sl9tDh08WFxfCILfo3fndz2DhhZkdT6XzI0bm8+hMBtdoR3fX2WyhyffsH12+kmi5Xv1v77D5B/ThFAOTMls39+qrs69POB7VCtyoI6+u2uH6zOrqGiYQyJwc308+UZ8Y+7aKqDBy5A/VImxkdhIwa2qq6f9aHSRZyXC1i+FqVofxbyD1V1Xmh48MdSuLAZ36i2RWV39p91p8U0VUHDHih2uRRGYnAfNLNeuvRXrajeBo6oBVuhJNN3qMMu3Yw1HVbBR+ElCf+F9JahC20mxZ40RWM5rU38s9/f7NF5u09TmAxIYBAA/lay9AjE9OTpiIl1TXfK3hJClZWut4b3keduWuo4GlCAa10cHR/Wd6S2IAQIu5diu9jhK8dd3dptWZVZ/oREJ14ttshp4CEQCInFxkAoFDWet/9u47LIqjDQD47O414ICjI0hVAVFsiIjYsMbee4slolGjftHEHkuMLfaCxt57NFbUWLEjCIigKCBGpEs9uLa73x/cwQHXOeXQ9/d8zxfZ3ZudmZ2be29udse7PPBnutZzZZ57sGrcD7mLFgd3dTfrOn+ObB/BqPChVfJAL6WoIcKXh44WDV42WvjkcWj002RJoBf5+nGsRStfFY9PIz/eu58gYTbuP7SZtDhU1qOH8ZRV38AmKPHq5aKgXk2/+LSo55HPraysPl/AKoyJSRBjZt4+dgknF6y4ZvdjyKp2tsqjF/Lj3QcJEmajAUPK6+jhw1eUVZ+2TdDbq1eKOvVspre3ZkpKSsd27fSVGpDDcKxrh6MPReGRnHXnBmgbriIqPexhgoTVIqijLY7j3cf2cbpx9PShez/82cUcFb1/V+zoqqINfeO+6VFok5YzV81oaSp6dWD+2nv5ag+nKBohhGGVYwQy5WnER+TY0l/BNBYMxxCiZcueAqCYhaU5Tma8Sy7W8HhaeVuM/Igc/RS1Rby0LVI13hZF8fHJEoxnJR9TE1wrHhshJEmOfvmJws0tLCoUgOXh6cZC1Kfkt0rWP8AJDCFabgUJ3KHPqK52WOH9k+eTSITy75yLazGsMw8hhMj3MS+zMc9BKzdt2rKl9H+bD4RGvH0bd356g/LTVlkUkWgwbumcdrZU6u0tU3t0Gb30zMt8JZGl3krxRYne/bt7874r1w4v3y0YGNzaulkLb5bk1bmdZ64d3X6D76To6WllqOyw+y9ErKY9epbdKi18HhErwuu6WUXtP53l5vXFo1WapqOeP3/+/PlnO4MkKSaugMbwuF3TNn38bt3O2aqiVYSo7PthL0Sspj16l9dRVESsCK/rahV98FS2q9fXNajx1SJsHOsYIdy2+/xFA7R/EBn16eGDFyKmd9v29jhCyMhvxJDGjIxL2/569jHq0Prj8RSsxqrcNzrCKszKKrGy4eHsRlP+nPOk79J75w9emdl2hMpVRzELS3MMfRKUCCp+nlCfwsMTSPOerRQsWEEKBWKEmVlYMKvsAkBKFH/4RIqNA5H8KvqlcIgmv79iFlZK2uKTZ29I8x7+itqiQCBGmKklr+bbIk1TiM7JzKRQlXccJRQJaUQVFhSQFXonhoWlGY5ySIqiFYSSCpl1HDWg3sWd0WdPxYyb9OZieocZrUp/nScLCopoqiQjjUJ22n3cGDWZtPtCo0PrVu3858XjA3NHPIzZeHSpgl+A9ViKL4fKe3Js+8a7yHPoyj0rmhsjxO7cs/WmJ3evbD3iuTVklMrFKVD+/btRAkbDoC7ls/lInGAiScy+NWHrNs7x/vKxWMq7d3l5ec8jIz/XCai8F7HvjeoFDZwyZ2p/L1O1x+ffD4sSMLyDOsnXEc5EkpgDq+6t2TLHW08x/eTg4IKCAv2k9VXgmev5wShEHQf7Oj2m/tbPQYcRv+In9yNLGB7tO0gHFRj1R0/vf3rqqR3jJ3yYv2l1DxXPhgHfZsAqSTy+I3zg4nF1cUS4DBjTdWvYP1lp2ZU+PkU5ibFvCm19mtQ1wRFCiOXuVc8YJeVlZ5NI/oFrJeHhMSJO81a+HDI7/RPP3qa8TsmMrFwKMdw9vWo+SAAGShB3+EjRoBWjhY+eXHse/k4S6Cl5/TjWolVLuQhBlJP44k2RrY+PU3lbNEJJuVXa4rPwGBGnmZ8vh8xK/2RRoS1mZn0ykLZI2Npa4ZLEu7eSZjaSe4oslZeULHZycnVio7eZr19mUQFytyHQQpGYxixc3WwJhDT8xZzlM2J4y4Mrnv5z9IxZjuS75Z7ScxGWluYYGfvgXuLsZp7yPaDk3YNwyj9A2bQMKj8pSeBSP2DC+vMDvz+9dt7K0y+PrdrVt/OilpWPZOixFF8Mbjtsy+WW+eZujtzSHBPOI3dcaZnGcqpvo/YWZotBf0UNqriJ2335pRvTGHXdrGtm4LB0bDUpMSk/P99c3yELQgjhZl2WX+vpWNdMwx9wLQaFvKhcR91WXgydwajrrs86Gj12jP4SAwqwvIat2W/eWLfQkttrc1Qv+Q24RZffr979IZfrrHFT+mZ9m8E8mfbfjRtX30uf7YzjOOHg29q17GNK+PbiyumzNl5OFL3bN27Yphjp80m4fm2bG5PpyUmF8mmJXkfHFWKWdW1zrm09eL/ib4TipKT/SIZnQBv40gQqEb27+dfmA5evH1m6WzBosr91sxaNmJJX53adun5827/FzrLfXwWJl1bM+N/6y0mid/tHD98cLW2LJv5tmxuTGZXbYkL0y0LMqq5tzrVtByq1RUlS0geS4dk6sObbIrtJG18LTPzi4JqyNYIREr45s27/czFhGdSnnQUmirp6KVnu2euSNzFxBbhzj4FttHn6C+EyYHhnSzrj4pojJn36lD09mXBq09qNIX55cPWJ8vMjyYdrf6x7hNtJuwEa0dL/K0O9v7jz1FsJQgjn+Qz7ff/y7lZ0TkamghPj+izFF8R1rCeLVkuZOHpoEK0qY2xfr6aiVYRQ2dhq1POoz3MGlnX1Qwxj+3p6jVbBl2Ds3sRLnw/ywE0c3CBa1UCNf3jVBKogI1+SuGfaz1uOnTm8cf72N60WbJzVWtotS1JOzRofQo34be7Ybo1dPZs1c5b117ht9/5teeK4iOfyMw1xgkFg1Mdzf2zPDJo8uMJjMUXxkTF57GZ9+3zRu2RBbUDlPTm+ZdMfv26Ib/tzcAtjhNsH9WptRr2/uvlIQdC4TqWjq5KU0zPH76KGL/51bFcfV4/mTZ1ldwDhtt36teeJYyOiKrRFnElgVOr51dsyg4IrtcW4yKg8dvM+fRQsjPXFcTtNGN+MS+fcXTZs6PQ/Qnb/tXXJ5EFTbzYZP8ABx236zv+1ux31fM/Ko7Jwksq8tufv1Ppjf5vd2hghhOiSEiGNkKC4RBZP0oJiIY0kghJxxTNZdB3dz5mQ8IKGdJH7fGH4jJve24HIubNiyIDpK7bt271j/YKJfYbvs5w4xV+6+LCkuEhI04LCQrkEMWNm4tF1xxNLc4VzLXhGJk1bNUEIIUpQIqARLSgRlH5L0G8pDJaus22VPMxfv6Jks1ejPuM0VrV0nZFMf5E6Al+Ibq0AGkFlBvDp9eXhZt1+vzbcipGV/C5TbBo0ZKYVR/ZhRqX/s3JNhM9vfwRa4AhxW09bL7doH27TM3j07pGnQh8UdOkqe5wfo+nMw/8OENq4O5hUiv6FL6/eSLHt+8uwevDNCVSC2w7bFNqygOfmUPb76+gdl1qlM53qyUa0qPRzK9eF+yy+KW2LP26q0BZ7TBm1Z9jp0PsFnbuVt8UZR2/0Eylqi7GhN1Ns+8wfrs3qgZ8Pq9HUkBBi5cqdV15e2v3yEsPSZ+D/Ni4eVpo5hsvgzSfNtq7cuHnUkIc9grzN8+LCU8yC9x4d42uBI/LD3QP7Dx6LlSBJwpmVK1ljRo6p83Lv0aNX0yhEP9k9709q/JzhfmVnYvuNHNIionhEYIWnfOF2vVYfJHmL1598Gro3PhQxLX36z9q2fngzLkKI/O/uoUMnTt8rQgg92DlvXVrPfhN6erARwoxMbE2zjkwd86B1ay/TrKf33gX9/sewuuR/dw8fOnokQozIlItrlnHHjJ7cpyFbr6UwTFR24ptsKkDb205EKQnJ/M99Xxmfz38V/6r035EREZ/5bMpROYlvsqk2BllH4EvR7Z0iev8aGkElWI3dkmqQqPTD33dca/LH/ZCBSuY8FT3+Y+DUuOHnD05Qs7QFlXVxdq/VxJJzf/ZWfbuC1hYtWHji2DGE0OvEtwRhEAEIqOqvnTvXrl6DEPr3zm1XV1etX0+lHxkT9Cd35d1dStvik98HTXs57OwR9W3x0k+91xCLz27UtC0OHTQ4MiLCvZ779Zs3tc245qjijMS3aSJu3foKfxWV5Kcmvf8kNrZ3c7Mx1v09VJydTVlacxUmUJyV9C6TsnZzt9XiBMLc98mpfGNHd2cLDX7L1VMpdJaUmNitcxeE0LwFCyZN/kE/iUriQsYEH3tHsSydPVxtzHy/XzOhhdoXFT0IWXoitiAj8c2HAgnRePLRkDGf7Wn5f58588ucuaX/JgjiweNH1jYK1mH+nCRx28f+eOQdybJw8XSzNm+xad0E9S8qerBz8YmXBZmJCR8KJUSjqUd2jnX+/FkFn40u75SihzuWnIwtyExM+FAgYTSecnv32C+R1drgmxxhVU7yMTWD5PrZKL9dk9t69oYpP8z643y3HaqeF0zl3t2wI6Xf2gNK1zwBQCVJWmoGyXVR1Rb9f94QPGHm6r+7bRuisi3e2RiS0nfNYYNri7ixXYMmdkp3M8wdPXwcq30WY2tr5fts3L21jmPYFs5eFhofradSGBaG99TjYVO1fBE3cOqfgZ8lO1WdOHa87N8kSZ49cyZ4qrb5rSaG97Rjd6Zp+SJu4JSNX6qOwBegyzuF2+bHDW0+T3ZqOwP7BKtpDHtHe0Zu0usMEiGEhCnXDl1+U3lJaKPGP2xe7hW6fGd0kbJkRIknlx4kZm6fF8iDCga6Ydg52jNyExNkbfH64UtV22KjidtWeF5dvitKeVt8e3L5fvynkHltoC2Cb0NCQkJkxadZnTpxkoL5gADUcvAZVgHuMPCnac3fbfl+wuxfFy1ef50R1FXBDVO4VZvZG2faXNt9TWEiBQ/3neSPWr/8O0f4uR7oDHcYMHta8+QtE8b9b/6CxRtDiY7dFLbFgFlbZtmE7rn+UdHncf6jAyeKR25c3l3r5VgAqK1OHj9RaUtKSsqTx49rJDMAAH2BKQGVmPhOP357dGp6kbG9gwVbeTzPbTT0l0aKd5m1mbIABvRBtZn4TjsSNupjepGRnYMFR0Vb9B4yz1vxLvOAyYsCPlP2ADBAQoHw3NmzVbefOHY8oA30ywDUYhCwKsDmObrwajoTACCE2DwHaIsAaCw09GrpOk9MJlMsLn9A2PVr13JycqysrGouawCAaoEpAQAAAL4Spbdbfdejx6TgyaVb/ty4oUGDBmKx+NzZv2s0awCAaoGAFQAAwNcg8W1iZmbmvoMHtoXsMDOTPp+4adOmF65cnrdgwaWLF+ExjgDUXjAlAAAAwNfAyIhzJTSUzan8fFwmkzlp8g+9+/YRCUVV9wIAagUIWAEAAHwNHBxVPfHW3t7+i+UEAKB3ELDWYkMHDSZwmNRhoCo9CbI2SkpMGjpwUE3nAlRLUlJSTWcBAAD0AALWWiw6KqqmswC+cl9B2A0AAOArAAFr7WNra1Ovfr2azgXQFIvJrOksaM3JySk/P6+mcwH0ycJC8/VkAQDA4GBw1yQAAICvzO6//lrzxyqE0I1bN93c3Ws6OwCA6oIZkAAAAAAAwKBBwAoAAAAAAAwaBKwAAAAAAMCgQcAKAAAAAAAMGgSsAAAAAADAoEHACgAAAAAADBoErMCQkJmPLt7Vd6IFEZevJwv1nSoAAAAAvhRYOACoVfz6xj8RGVT5BsLWt19XT2OEiuJvXIzMIsv3YGy3EUPa6Hie/OjDqw7zBy4MULSTn5qUb+HuYFx1j6ggNSX5/X/pebSZfV1nd1dHc3bFA8y86+WsXLC5x6/TA20JHfMGAAAAgJoDI6xALWPPoF4BdglHly5asui3kHvCBh3aNigNHLkNO/fv2rAodP3iRUuWbPq3wD2weysdT1IQsSV4UWyHXya3UrAejyRu06hOnbuO2p4gkdtKZkUcXTahS7t+/9t19WliZlZyROjeX/u17zJ60eEnGfIHGnmNmDdctHXK73cyqcpJAwAAAMDgwQgr0ADDzKWRqwWGENtv4uLv/RzKv+fgRraertY4QoRTnymTApxZOqVPpV9c+NMpuwX/dLdV+BUKt/ZsXN8Za9bQqmw3P2bf9Mlrw5hdl++/MNLbVLZ5+k9vzi0OXjjq+o3ZIdum+ZrJtnP9ps/x7TdjzpGj+8a6Q6sHAAAAahUYYQUaKXz65KUYMRq2a+dQqc2IYh9HFtC4lX87H92iVURlX1q58prlkCndrZS0R9y2x++X7577rZPsgPy7q2atvZ1lM/C3lXLRKkIImTQYsOL3YY6fHm6Y+cf1HLkBVaMWk75v+PzP5cfekwgAAAAAtQkErEATxeFhEUWI4dYm0KXSLFDJ2wdPPpIYt2U7XyPd0hbFHNwemt+4Z18PTUc+yfdn/jqTLCFcegxtb1Z1t0mrwX0aMMjUCyGnkuSCU9yuR+8A9OivXQ+KdcsoAAAAAGoGBKxAA8KYB08+0bidX6BXpaCSTL3/+K0EcZq3ac3VMe1n5y69oV39AxwV3RAlzHz15ObFEzvXLp6//7modBuVdv1GpAAhIy8fb4WDuoz6TbxNMSR6cf3fd/LDqeb+rb2J1Gvn7hTollUAAAAA1AgIWIF6ktdhj9MpjOfXtlmlG/CpTw8exIkRq3FgG0vd2pIo9vb9j5SRu1cDhbGnWFBS8uH6znUhp+OKTaURrSQ9LYNCCDfhmSu56R/jmZvhCFGZH9Pkb77Crb0a2GCfHt5+Cg+5AgAAAGoRuP0EqEW+v/8wWYKYrMRj08efrLBLnPHiSQlieAe0ddDtgVFUXnzcB5KoW7cuU+F+rnPzNk3rchBu39TXSXoKnGtijCFECUsEtOJU6RKBkEYIM+aaYPLbGXWd7HA6Ji72naSLJ7R9AAAAoJaAD22gDpX14EG8BLFaTwnZ971jhXHUktvzOz56Rbj4t6unY0uSfPiQTiLMjMdTFvBShfHx/1EmnVp6y0Z3GW4tmljjcelFb+KTJd0aVj0zmfYqIYdCmLVPM48K47YEz8IcR2T6h/8kCAJWAAAAoLaAKQFAnYKHD2OEiOEVEGhf5QEB959mU7i1X2BjHR8QgOjCwiIaYWwjDqbkCHFs1Csxw7t5i/I5suw2IwY3ZCFJwp1/kxTc8k+m3r79UowY9QaM6GBScReTzWIguqigEJ4UAAAAANQeELACNfhP7kcUIcI1oOoDAhLDHqeSmGnLtro+IAAhRFE0QgjDlMWrZMqLuBzMpVkL+Se0sppMXjm9hZkk9sC60ymSSi/4eGnd3qcCE5/Jy6f7VZpyixCGY2UnBQAAAEDtAAErUE0Yff9pHo3b+rdtWGkUlfz44NFbCeI0a9faRPFrNYBZWJpjiBYonY5aFBObRJk3aeFZdnbyw9vEYuNmM/YeWzW83ss1o3/YcOl1Yeku/tvrm34cuzi8zuAVBw//3MpcmPTmfcU8CwVihJla8GA+AAAAAFB7wOc2UEkUf/9R6QMCmld9QMDDWBFitWoTWPEBAVT+mzvX7sZ+FBg5t+7Vq6UDW9V2lrtXPWOUlJedTSJ3BdNYhS9fvBIwG/nKnV0Uc2B1Qo+5A5zN20xe7zc07vDipXubd1kbxEHC6INrrlnNPnS0qRULFf73Ju7yn+cdd611LnspmZGVSyGGu5eXrlMYAAAAAPDlQcAKVJG8vX3/HYkY9Rs1rvSrP5V+PTSyBBEujZrYyQWaVMblOcO3Gy06sKRP0Zmfxgx9vPTS2q485dsR169tc+PQp8lJhaiVVZXzk+kvXqZj9Qf6WsjFxHThk83jum0u38DqkFGCEAdJMjMz46/P6n+8bA+7+4YKxUlK/I9keAa0sYOfFgAAAIDaAz63gRJFcVd2/j7jp33xEoTEsadXrttz8uEHEiGEqIwnJ9bNmLQmrAghMjV084ptJ6R7EKKyE5NEbi2aWLONXLu0dcu6d/u5UNV2hNt279+WJ46LeK5o/Sl+TFQCbdO0hZvKb1ZUdka6BCEyOyNHrOo4UXxEdD67eS8TSs3tAAAgAElEQVTN19QCAAAAgAGAD26gBNe75xTvnlMWVd2D2/kPn+s/fK6iVzEa/XT+AULC9IiL1++HZ5J5pvmUqu0I4TY9g0fvHnkq9EFBl66VFloVxUfFlZj5tWkqPx3BqNfmmF6bkQIuwWdeBSsvkfBl6L8pNn3nDaun2zNjAQAAAFAzYIQV6BeVF3lw3qSfDyXV/W5Y6zoYQrTq7QghdtMpS0bxbh48k1LpYVNkevSLj0YtO7Yx1UfGsq/tu1Dcc96cIDP1BwMAAADAgEDACvSJyjg3P3g3PnL1L0OaWxPqt0txW8/eMAUd++P8hwoha0lUdKJtj6FdLPSQsdw7m3ak9Fm3tIcttHkAAACgloEPb6BP4oTIF7ksYy4TISROS/9E0xRFqdhexqjxD5uXe4Uu3xldhBASRfzRPSD42O2nH1vNmNq++iOiosRTSw/gM3f8EsiDFg8AAADUOsTSpUtrOg/g68HgcTLvnj5y9mZs/Mu3tBWR8PDJ63RjT/9mDc2zFG1v7FC2whVm7BTQyf3didMfAgM8TbkoPf6VuM3MuYM9ONXNVMGj3XvTui+c1dEe5q4C8I2IjIh4EHYfITR23DgLCz38SgMAqFkYTcOaP0CvJAUZGSKeozUbIVFeahZt7WjBVrUdAAD0bfdff635YxVC6Matm27u7jWdHQBAdcFTAoC+MczsHKX/ZPEcHdVuBwAAAABQCWb0AQAAAAAAgwYBKwAAAAAAMGgwJQAAAMDXxtrauqF3Q4QQmw1z5QH4GsBNVwAAAAAAwKDBlAAAAAAAAGDQIGAFAAAAAAAGDQJWAAAAAABg0CBgBQAAAAAABg0CVgAAAAAAYNAgYAUAAAAAAAYNAlYAAAAAAGDQIGAFAAAAAAAGDVa6AgAA8BUhP97df/RpDoUQQghjevaZ1b+h2hcVPz+183oyWfoH4dB+/Ch/KxjQAcCAwBsSAADAV4TMeHJi166/Lr63C/xuwKD+bZw1eRGnXvsBA/t38zN9ffavXTv/jsyDNSABMCwwwgoAAOBrg1sFDh7R1oet8fFm9m5m9qiBU3/fkDs3PmfOAAA6gRFWAAAAXx0WR+NgVR7B4jAxfecFAFB9ELACAAAAAACDBgErAAAAAAAwaBCwAgAAMEyizJe3z+3dsHThgeei8o0JJ0Mu/Se9oZ/879Lq2cvOJoiUpCBVkvk64v718wc2LV9x4pUEIYT4SXePb5g/a/af12RJAQAMGQSsAAAADJOY/yn5zpGQI6euxXwqfUwVIlNO/rHq6JMUSemfknePLv9zePffL1WmQ0kE/JynB1cs23zqtcQCK4g9tmTuukuRT25dOffXwetp1GcuBgCg+iBgBQAAYJhM3NqNHh1Ul6ALcksDVir9wqotD/KyM9OFpUewA2f/2sPO2sZGZTq4qXOLNh6WNGJ6B7ZI3bvyJDZ8bcjqnzq74JiJnYMlfBACYPjgfQoAAMBg4SZcI4wu5vMphKjcm1vPZ9nzMDIzLVP6Qz6dnyZs0b+Xg7p0SsLvPS0i3OsVHT3NGb9ohDcX8aOjX5NsHz9fzucuAwCg+iBgBQAAYLAwExNjRAtKimlU9GTXGe7kBZ0dCCo7I12CEELkh7PbY1rP6G+v7rNMGB32KJtm5r/OD5g12ouNEBLGPIksYngHBMCKVgDUBvBGBQAAYLAwYyMORouEQmH0nmNo7LSA+nWsCSo3I0OEkOjN0fUPms/63kPtEjii+LsPP1KI4zNqek87HCGERHEPwjPxem3aOxGfvxAAgGqDgBUAAIDBwo2MORgt4r8+erxk8NRAM5xjb8fDJZnpGfnPdmx43W3+qHrqV2yUvLt7/x1JuA0O7i0diyX/e/j4HXL0b9cA1nsEoFaAgBUAAIDhIthsFuI/Cs3pMbWdOUKIsLO3wan0qAO/7Ubjf+2hdjIAQoj8eO9+goTZuP/QZtLlr6isRw/jKatWgU1Q4tXL0YLPWgIAgB5AwAoAAMBw4WwOi+H43axp7Xg4Qggx6tSxwansl3ntFs5oZaZJClR22P0XIlbTHj3dZT//C59HxIrwum5WUftPZ7l5wW1XABg8CFgBAAAYMLaR64BFczpbyD6uOLb2zi2mb109yFnD2af59+9GCRgNg7qUT1clcYKJJDH71oR5jh/tzf4MuQYA6BfM3gEAAGC4mL4ztvrayN3Kz2456/BuG3uuxilYDPoralDFTdzuyy/dmMao62YNwSoAtQMErAAAAAwXzrWzq7jFxM6++ska29dzq34qAIAvBaYEAAAA+PrQtG6vo2ChVgAMEQSsAAAAvjZUduKbbO1DT1FKQjJfx0gXAPA5wZQAAAAAXxGcbWpTpw7/3cHJox652pj5fr9mQgu1Lyp6ELL0RGxBRuKbbJs6dWy4zC+QUQCAFjBa159NAAAAAAAA+AJgSgAAAAAAADBoELACAAAAAACDBgErAAAAAAAwaBCwAgAAAAAAgwYBKwAAAAAAMGgQsAIAAAAAAIMGASsAAAAAADBoELACAAAAAACDBgErAAAAAAAwaBCwAgAAAAAAgwYBKwAAAAAAMGgQsAIAAAAAAIMGASsAAAAAADBoELACAAAAAACDBgErAAAAAAAwaBCwAgAAAAAAgwYBKwAAAAAAMGgQsAIAAAAAAIMGASsAAAAAADBoELACAAAAAACDBgErAAAAAAAwaBCwAgAAAAAAgwYBKwAAAAAAMGgQsAIAAAAAAIMGASsAAAAAADBoELACAAAAAACDBgErAAAAAAAwaBCwAgAAAAAAgwYBKwAAAAAAMGgQsAIAAAAAAIMGASsAAAAAADBojJrOQA2TxB5feSxGQCvYhbGbjFg0wochiT+9+nAkn0aES4/ZU9pbffE86hP5+uyag88KkWnLcb8O8iQq7suJuXL28uP41FwRk+fo2arHwN7NbbVqIHKpLxjkqdeMI4Qkzw8vOxUnkf6FESxTSzt7B/cWQUFN7dj6PtkXJok5uuJEnHnb4Jk9nQn1hwMFaqAOJbHHVx6LNWo98ee+7jVz2STxp1cfjiL8xv0ywINA30JDMrwSln1CVIIZNRu1YFijz/sZa3jVUX36LZMB1BA/8cbxk7dfZVOeQxf90JpbM5n4OtDfNv6p4TxMcc1g5kNP8mmaLvnne1scIYSYbda8qen8VtOnSxNdCYQQ7jDxskB+B5l+Za6/FSFfFRjO8535TyqpW+r6zjlN0/xD/RTFpRjHufuymxla5NMA8Y8P5mIMzzkPhTWdE6XEkYcWzVu4MfSDodb0Z6/DqjXAPzWchxFu028LVL3ucyo5P9YGJxx/uCrNgWE0JL21FQUJGUYJ5ZV9QlSCW4w8W/K5T2541VF9+i1TTdeQ5NX27tal7YPVdUd6zWTia/Gtj7B+QyTp99ZPCD6YQirYl/vPLz9seJJTYRdN5UVs/WG2f+vjIxR2x5qnrk84r9uyw7NbMmhSWFyU9zHu3qm9Rx5cWzZ8ksOTc5Pcau0QA27q6OnlaWdrZLhzdESxZ9etvtIA7z+9u6NB5vKz16HB1wAylIakt5pSkJBhlLAqZpt5ZxZ3YMltwVgOzVhKj9cTQ60Ow1HDNUT9d/nErWzMcei+m7tGuHE5NZKJrwYErFKY2YC98bv7yg3hYRiba4wQYrX++cSVYUIaERZeDjWWP51JYo8v330nMSH89p3odAGlaPIDyg89duEjiRDCOL5zrlxa4hW3ok/vdRElNJV15fiV3BHfK50HoUnq+sW09+ny3Xdlb/txU8e06N3qp+uhW/Y8/35ly9ranjm9Nj3rVdOZqOWgDtG3UAmGWkLcumHn774z+dKnNdTqMBw1XENUdk4uQoxGnXp78iBara7a+gGvfxjThGdlZaxgD5trZWsjphDONZIfwcuPDz13LTw5z7h+l6FDfKg3SdkiCuHcut6edmyEqNzkF+8+SShEmDs3rm/DkNtg6tzYw4aBEJWf8jIpW0QhwsKtibtlceLd0Hjzzj2bWeAIIcR/9+Dy1ftxH/LETJ5T48Du3du6mepSLlHc+S1bT+WrCiUlyfFvSmdgMXwGjG9vzyVsgof7boy4L0a0IOFlgggFKBso0CD1z4xRf9SoDvOv/5Pw5Gk2amlfaa8oPyODz7R1sJR9EyFzE548fvlRwKnj3bq1p4WCIVkyN/FZZOx/+Wyn5m393LiVv5YL02Mfh7/Kwmwb+bdpaFPp/UMW/hcXHZOQJjF3berv62qKa7VbCcF/EWERKUKLek1bNnWq8oEoSHvxOCIFubUKaGRb/Zm8OuVQZZVI0817+/B+nNC+aUBLlypF0K1atKK6Dr/AKTSoI40Vvw8Pi/hPbNukXUB9jS652gpW0+alKr+ZdCiTPquhKsHHqPvh7yQOzdv5yVqZ8GP0w2dJReb1W/r51Knau3/e/FSkvuvRXJV+rRLNyqUuFVXI3MTwpzHv80iTus0CA+rzFLcZVW8KzVLQNDva9SF67nJUXVpKIiZphFis6gy267WuarWanpNQw8rmsMpmrFalcA5r3q2fm5hIZ3xiTKfBk/valR7j/8er0oRPDDHFEEKI1WnrR5Kmaf7JoealG4K2lM7IKrk43g5HCGFG/Q++OjWxoQnG9FvxUkLTdMGT9X1djSpMKGXX/W7NowIdSlhyabqPu1spFxvj0kQrzmEV3p1Zv7RPK8vbp909SjsxuelxWqWuQ07V4R/qx0a4zdjzleaFCa5OciQQM2D1a5qmacmrNe1M2eaDDqc/DxnTwpZVPnuJTL+1ope7MV6aSQw3duu5/GZ6hVl2Bc+2DmvIk07lxRhWftNPJ4vLdxc+2zywftllN2kwdFdseV74MbvH+MheizDC3HtEyPMiDXfzT46w4pg0mfdIOs+q5OwYW45Ji4W3wtb2dGJJ88N06LK6QhsofLZ5QL3S/GAMXvPJR/YFuxsb2Y87p9PMOaU5FMf+HsBls5kEhjCcwWKz2eaDj/DVVwn/5AgrDrfNkmNre7saYRhCCGPatpl17p1Eg5PqkH+d6lAjympAOof1x1OXFnd2VHWZlDcb7ZCfHvzR3ZEtveR2QStuHhpTcQ5rpUpQX8Gq2rzyN5OyMqloK9pVg8KEFJRQcGNaPWNjz5kXw9b3dy/tgDC2Y5dld7IlmbeXdXfiSAtm5NZz5d0c+Xe73i5L6ScEu+9Bpe1WXdcjvPdzQ2OO9chT5R9BJRcmOhoZu/94XXphlV2KKhdcZbmUX1Bt8J9vH+Jpipe3KZ/vD78u6yc1ed+pTqF81in5bktXcw7Xd0mkWD4DkvjVbU05pu3XvpbQ6nveSjWkxy6HVnlpybSdPczYbBYDxxBGMNlstlnPXRlan0F1XX1jIGDVJWAlP+zoJo0TcCNbVycLNpPJwBDSMWBldxzSzw5HCJUGrPy7sz2ZWGniNm71nXilb3qM1azS21ZrOX99xy4LKeUC1jszpPc4yzJL5+7tJQtYJ13R8I6SCqlXK5+KKQtYcw8NMMUwTs89OTRN05JXf/gzEbvTxHHuTGPHFl36Dpy6N05M05LX27pZ4pixx4Ale/++eG7fsiENuRhu2XXrq7LwKefiRDcGxqjT8aetJ86f2TW3syMDNw/aJDug4N9pDZiEbduftp06f3r7zLY2OMb2XRZVekkEj+b7sDDcJuDHjcf+uXR21y9dHJkYq9mSZxrtrnJjAP/UcB6G8+o62dfvNWfrsfPnDizp7crCMOOOGxJl+S34d7oHEyOsA6ZuPP73qW2zOjjw7OxMcB1v9VCRQzL14orgSRM6uzEQzmvaf+KkSVO3lfb+KquktFC4ha0Nz3PQsv1nz+xd3K8eB8PN26+LFas9qfZ0qUMNKauB0lNw7evYqrpMqupIO7lXJrszMJznN/HPQ2dO7pjb1dnSyoKFKb/pSm0Fq27zyt5MysuktK1oWw0KE1JUwuvBdQncyrtxvXrdZ28+ev78wd/6ubMxwrHbsI517AMmrTrw94UTGyf6muMY02dheNn59HhZ1AWs6rse4d2Z9RmY6ZATcgFrpbvplF2Kyq1edbmUpaINSdyqACOc2/T7DccvXrlwZNWIRlwM5/XbnyYNwNW/79SmUF4myevVASyM1X59ktxblkzd0dUIY7ZYGiPWoIlXrCG9djlqLm3e7fVTJk0c6GuJI4Zr0PeTJk3ZcEfbL8vq6uobAwGrLGBlNxo0d56c+ctPvhTTtMKAlf/3aCscIYQYDabfLKDJ9NOj6pZGfLoErAgjGKXf95h+K15KBJcnOhAIIcRs/MvDIpqmcy5McCnd4Ls8tloR69cYsEre7e5jjZcNTku7ZIxguQ3e87K8/+dfn+JCYJxWK2JkNSiOXxNojBHOwaGlR5HJm4OMMMJl4oVPpQeQGQf683BmsyXPxTRNk6m7epjivD57SyuIJlO2djbGGA3nPhLSNC188LMHAzFbr3ot7VfJ1G1dOGW5UrNbSbCFCIfBh99LOyYy80B/cwzjDT8tzW7a3t5mGG4/9JhspObTxYkuhK73JqvNYWn1Mzxmh5UNyKiuEmmhEMbyXfJc2oRKnsxvysQIp8lX+ZqdVBva16G2J6hSAxpcJjV1pA0ydVcPUwy3GnBQmhhdcHO6B6PCzyAVK0FdBatp80reTOrLVKWmdK2GqlWuMGBFuHWfPcmyNpNzdJAFjjDj1sufy94IJdenuBCI3X1XdvXyo5A0YO2zL1csTyIpTVt916N5wFqlX6tUHerKpSwVLZAZO7tzMPOBR3KlGwrPjbXDCYeJss8JtW8K9SnIlUkSu6IlEzPtuz+7PAu5xwbzcGaThc/EGnVc8jWk5y5H/aWlxeELGjMRu/e+PO3T16CuvjHf7lyISmjhy7PrVstZs+VSgkTxsVR+6sdCCiGEsRq18jNFuN13Pf1lv8Hocm6KcOm9cO/FO3f2jHfFMhISs0mEEGbSuGVTE4SQZetWngyEECLfv32rJEvfDkleSlRERMSzp4/u3Th3YN1PPYN+upSNLLpMHFXhsbLGQb9sGu9dNmlNFH7pRirF9Bs2yls2oYvhMXyoP4tKvXH5qRAhhHJv3XgqwJ16jexmUXoAbtUusDEheRMbJ0QI5f979X4R4dMhSPrIBNyhtX89BpkUHZVHIURlZ+dRGGFtZyvNBG4b9MOCeXOHNjNGSO1uJXCLzqMGO8lujjav725H0CUlJaV/8++E3i/EbHuMLh2cRwhZdBvTz1XXaXi65FB1lcgwmg8a4SOdJMfxHTu0BYNMuxX6TKTjSbWksg6/wCk0qyPN8MNuPuJjvM5D+9SRns207Yi+9VRccnUVrKbNy1R6M+lQJn1WgwIYp83AQa6y9z+3Xj17HDFbDh3TRHaXC9PN1QFHtLCYT32u/AgvTrBgyuM0XfhUolHXo4VKl6IyDculJhXVGF59Zs6dM6Kl7JYKlkMdK5wWiYTydzKofFNolIIU4dmnZyMG/8ndB8WyTYKHNx8V4vW69/JhaN2H6LXL0e+lVUybuvoGwE1XOqD5xaVLDWAcExMmQggxzM2NMVSgYxvC7YatP/p7/9ImSb4ViUrToTJirpxnMhAqic+lEEKILios1Ef3XptRuRdmBlyQ34Ix63T4Ze/eHyo804rhGdjOHpd7VVz8BxK39vByKD8Kt/NsYI3fSY2Py6U62ksS4t8IacLDp3HZHQiE65QzCYNKjGyMEBLFRceVIBNHFztZArijgy1Gv8pKS6eQLcPNzYlAz++FrL7Za2VnWwIhhvfQxX8MlWVH9W4lMFMzc7mvQQQhV0JJQuwrPs1o6tOk/M5TVpMmngSWrDpRJXTIoZoqKfuw8mhYFkogwrWJtxX+9MPr14WovZVu1aIVVXX4BU6hWR1pRpLyOpFPEX6+Lc3KtrEaNqzPwN4qe4maChapbvNlqVR8M+lQJjUvod/dOXbzrdxHMFEnYGivRlrcHMcy4Zbf04ITDAJDmKm5BS63Tf7C6/OylOXZumGbRvIvxd3czDBNuh4tTlfpUlSmYbnUpKIabtlh2uoO5X8XJ4e/SKcqr5mp6k2hWQoyjEa9e3iuWvfwTqSob1sWQkgUeet+BuY6uLcvC2ndcemzy9HvpVVMu7r6+kHAKlXlsVYYztbgmWlY2ZtS9wFWRDh7elX9fkcX3P59yO0KWyiJ5HM/59TQYUae341sVxfHcCbHxMyqjrtPm67dWrtWvrEZMzUzk7sidE5OHkVjphYWFe5kM+eZYXRm3qdPNLKnsrJyKczY0kpuHRKca+cq/VOSlpZJoqKrs5p6LJCmQRWmSRAtKCmmEGI1mvDz4P3jToSv/c7zQvfRP0yeOr63d/m9nAzVu5WXVmmrkqSnZ5MYzrOykkvFyIJnrGM71CGHaqpEVgQznvzSHLilpRlO5xTm5ZHIStdq0YryOvwCp9CsjjRD5X7KpxFuaWMj9+HPNjNV0UupqWA1bV6m0ptJhzKpeQkVuXvm5GO55S9mBW3u0qORiVYtocrBKi68Pi+LDKPNvKv/jK36CAz1XY8WJ6l0KSrTsFxqUtEMlf/6+tE9e/YdvRSZJqRx6ypZVXsGdSlIMZr27u6+bkvYnbdkW28CkW9v3UuiHSf18WchpHXHpc8uR4NPFZ3SVUTDuvrqQcAqo/yxVp8fjn+z35i0hXH9g7ft7qfBVwn5P2iKohDCuKYVnl9CmJmaYAjRJEkjRImEIhojmEwll0IoECHEsHD2amhTdkTDRoiwa8DFEUK404hDYXZ+y1ZsPRV2Zdv/ruxc7t3np+V/zB3oxUXqd+tALBIhxGCy5LOLcYyMMKTb79065FBNlUjzxGAy5a8Fg8lECCMIAtPtpLWMRnWkIYqmEYYzWUy5bTiTxVARGaiuYHVtvkzFM+hQJtUvwd2Cxk40llvblOHZWPvq0YY+L4tqGnQ9WlEdBmparuqFq/lRB377ddWBm28Edq2Gzjg09PHkeZc+Ywqsln27u2zefe9uBuXtgNJv34ml7Ef2DpAOLmnZh+ixy9H3pVWi+rX9FYGA1WDhlsOOxO/qKf+IPJxpotOzWL95mImJMUJIJBTIb6WFQhFCyMjEBEMIJwgcQxSpZAgb5xixMYzZcf7p/X2URMsMp06z93Sauf71zRMH9u45cO78iiH37v955+rsxiwNdmtbIg6Hg9FFJcUihMq+ZdESibgavaSWOdSgShBCiCLlx6xofmExjWEmZma4TietZTSsI80wmQSiKbG4UhNVE3yoqGA1bV4JHcqk7iXNJ236a5JWmagevV4W1TToevTnS5SLTN4zplvwpWKvketvrgwOcuEUnx6hXSG0ToHVqk9Xxx0n74QVTh1G3bkVIbLp16e93NiSln2IvrqcL3Fpq1/bXxcY2asempb9V8UvSbT6Q8phzLIRKQbHzNzc3Nwcvb6wY+vWrVu37br2eW66IhiyURqKLD2BWCIp28dU/KLahLCpY2uEUQW5+fKfzWR+XiGFcWzq2BAIYTyeOUYL+Hxx+QGiiP2//m/O5ltZFMIsLcwxWiQUll9E6uOT8ydP3YjLr3Aq3Nyza/CqE48jjo52xnLubtn5QKjFbs1LZGXNwxFdmC9/M4U4L49f7a/1GudQsyqh+EUFclmk8wsKaMyyTqWHuOurWgyNxs1GA7i5uSmG6BLZjUMIIYQkhYXFmlxyhRWsps3rr0z6rAZ9+IL50aDrUUws1v7L5xcoF/nqyK7QLNwjeNeemUEuukTFOqTAadOni13Ro9tPhcUPbj0qsgjq1bHqeKiWfUj1uxydL63mql/bXxkIWHWAmZlxMYQQovkZGXkUQqgkK7tQWe8iEYkQQlRhbr5Ik8Rxno0lC0MI0SUF+QKEECI/XNvy2+LFixcvWfuPsgcXVAthaSmd0kTnZGZQCCFJ+kfpBxbOsypbuEOQl5GRnp6envGJX9um0nK8G7kzqPTX8dlyXfmn+IR0iuHq7WWEEGK613cmkCT5TXkVU2lhBzdt2n4tCccR08PTjYGK01NzyhIQPNg0fsTopZeySYQEV+YE+gWMP5AiqxjCoffA9hY4lZWWpn63Dhj1PeqxMMnr6Jjyr/ei2BevRDoGrDrkUE2VSNE5bxMyyg4g38UlFNAMD5/GLN1OWstoVkeaYTi6ORth1H+JieWdgOhl7GsV9wurqWA1bV5/ZdJnNejDl8yP+q5HESozNU2jbyIVfIFyiRMT35MYs2Hz5rLwiRSUaPTJVp0UjNv36WKV/uBO5NNb97NNO/TubC7bo2UfotcuR7dLq43q1/ZXBgJWHeBmTnWtcIQQLXp6fHd4ZubjHYfCBBV7F9yYW3r/i+TljQtx+XkvjpwN1+wbM7eFrzcTQ4gWPjy5PyqvOOPB0YtxEoQQRrg1aPA5hjsJd99mpU/5EMcdWrbm1MUTq+bvjZYghBBu0dTXSzpvpPifyQ3q1KlTp45Tr62JtSyeYHh37+xOiB4fP/JK9tlMvj1x6qGAcOnU3YeBEMId27XzYkji/zkTIQ0Bqezbd6LFDE9fX3OEcLugjo0Z4shrV9OknZPgadizIszaq5EjgRCG5ac8D79xL6bs2Svk+4SkQpqo6+7GULtbF2YdOrZk09lhoQ/50i15tw6eS9T1C40OOVRTJVK0OPzvUwnS5iKJP3M+SsJo0rmrI67bSWsZzepIQ6YBbZqyyeTQ889kX1L4j0+cV/UdVk0Fq2nz+iuTXqtBD75kftR3PQghDoeFkJhfJBvkE8YdPRUuVpScSl+gXBiXa4zR5KdM6YgGlX75SriQRjStaXitUwrcTr07mb+5ffDY3WSjdr278spT064P0WuXo9GlrZbq1/ZX5uv4WPjSOAFd21sdOJlF0QVhS1rbLcFwUzMTHMk/c4rh4uxIoAwKUTmhM314Mwk7P18XxtNk9QEF4Tl68nebn13IonJC/9fC8mckbZ2YaduRQzw+S/fO6TR5YtNjKyKLafLDpUXDyqZ0Y5xG44N7fJ6l178wlv+Ps6vq7DoAABTNSURBVLrsm3Zt+cDhwvnjWlnlRR5ds+pusVnQjB/blM5cYjSbMK3bzqlXNo0ewVk0wZ+XcWfb0sv53MAxo5owEEIM73HB3TZPubpwyE+i//V0E0YdWLE3Eff6eXwQByHEbjesn+uBkBNzJ7jnjfO3EX94dmbTn49E3DYTxvmxEEJqduuAcBk5pd/asFP7poyus2xic2bS9e1rzglsOFgGpst98eoKgBBuaWWJk8lnF03ke9u1nrx6fDPVVSKFG7NiVw/7nvp1aGM8/tjva56JrfpNm9CQodlJDUrVGlD/Go3qSEOE27Dx3dc8uLBl9GD2/Ilt7PMf7VxxluFhjb9W9gp1Faymzetcpqo1pWM1VEroT02qXBP6vCzqqO96EMujuY85Fn9v+y8h1oMc8mJvHtl5vdCJi7/R9lyfv1xMH//mpiEpj7b89Lv9FD9mwvn16+Pdmpmnxzw/F3LRY3If9Q8j0y0F0869g0y+P3CIYncK7i73aBQt+xD9djkaXNrqqX5tf21qdt2CGqfb0qw0LX61Z6CLdMlUnOc7e/tcPyZCCDFbrypd6YqWJB0c5iJbSdmo/uj9f//amImQopWu5NbdKEVm3Pq9b4Oy5YMRwpi2rWecSqruAsJKVrqiaZoWvjkxrU0ddnmog7Hs/IMPx8sdVbZ4V5X8Kki9mjlVRNnSrBWVruXCCtr8vvLadWTalQVBshXfEcKY9m3nXPggXxDyY+iiLk5GslWbcXOfCUfelFc6+eH8LD8r2XRfnOs5LCSqfDXGvEfr+rmXT7THjJw6z7v4XqLZboWrNBFu02/LrUf2aG5DBmL3O1S+4lB66Py2dkxpKzRvMfNMyHAersXaZBWpKQCd+++CAHsjAsPkFtNSWSXSQk3fteY7R2kumTYBcy59JDU/qRZ0qkOtVKkBzS6TymajHcm7kxMbSTsGDDf3nXX+9HR3QvnSrOorWGWbV/pmUlcmBW1Ft2qomJCCEgquB9clMN6I0+W9goK1hSSJ69oyEavjxpSygujvsqhbmlWTrkfwYkc/Z9nHBce174awo2MUrHRV9VJUueAqy6W8d9ScIHpL77qyrBrXHxISnXx6vDsbkyWr/k2hNoXKZaJpmqazDw7gYZhR562V866miVdOTY9dDq3Bpa3eSldq6+obg9Hf6thy9RUlP7wd/l5i06R9e48Py1v5LX8uRqygLUm3ZjhKjyhMfnjn6bsSrnurjq1dtf0uROa/iwyPSsrg08b2nv4BzR0+/yO3hBkvnzx9+V++mGle19vPv7H91zfLW5AW9eDxq3QBy9bDP9DXUUGdijJfPg6PTy1iOjRt39bLotKQNlWcHh8ZHveRsvVpG9jQqtI4lCTv3cvoF69Si43q+gS09rZhabVbF1RR8pM74e9KzBq279QE7f3OZdqdpiuiHy5sqNtQvC45VFolxSeG2I087/jzvZg13u/u336ewazbPDCgfpWnHn6GajE0qpuNdoTp0ffuv8wh7Bu3bd/YRpOk1Faw6javhA5l0mc16MMXzY/arof/PuJxZGIu290/qKVTtbrez14u/vun954mFhrVDwjyczJGCEny01L5RnUceJq+ebVPQfRwTpMOOxz+jPt3pmuVqYxa9iF67nLUf6pUS/Vr+6sBAasuJPEnV+x5XEAhwq7TjLl9XMjX67u3nHuniCbqBl99u7MrW30SAFQLlX5i2pBNsV7Tj+0aXboEIvVx/0CfSVfq/HI/clUrQ+jJygPWdQGGkB8AQG0lvP9zk6CddTfE3ZjhArfefKtq/DturYSbfHq8e/P1QhphOw7u83YkU+KSi2iEMRsMHRUI0Sr4AnBrbwdh9K6D84MdGXN7uGKpT4+vXnYxz7rfhh9bQnQIAPgaFL64cfuTpTMev2/O3kTL3suGOUG0+g2DgFUXuPP4dav+Tfz1fBJflP0mKhshhBG8xsNXHV7WrmbWygLfHEaT//31Z+yIhWeXj7i6DCGEMLZz16UHdo2BHh0A8FUgs64tHzz3vhghzMRr/L51Q2yhd/uWwZQA3Ukyo67fCH+bUYiZWDv7tO3o725eE49oAd8ySVbs3XuRbzOFXOfmQZ1bOhjSrGMy4eqeG8ncZgNHBNrDxwwAQGuC5LB/bjxPp2ybdevdwf1rWbEZ6AgCVgAAAAAAYNBg4AMAAAAAABg0CFgBAAAAAIBBg4C1hkhijv62YOGGK+9r2Rqn2jHIUtZIpgyyJgAAAIBaAgLWL0Ly/PDi+Ys2XUstW7xVFHd+w+q1f91O/XoCmKqFNMxS1kimDLImAAAAgFoCAtYvQhR7dt3qtXvvpZXFcripo6eXZz1bo6/nClQtpGGW0iAzBQAAAADl4DmsNYTTa9OzXjWdic/OIEtpkJkCAAAAgHIQsCKEECJzE59Fxv6Xz3Zq3tbPjVtl6I3MTXjy+OVHAaeOd+vWnsrX2hb8FxEWkSK0qNe0ZVMnE11zU/1UNM2vqiQK/4uLjklIk5i7NvX3dTXV93Ck4GPU/fB3Eofm7fxcpGUUfox++CypyLx+Sz+fOlUXYBCmxz4Of5WF2Tbyb9NQ7RrqWudfkPbicUQKcmsV0MhW1Wplqq4OmZsY/jTmfR5pUrdZYEB9HozhAgAAAHpBf/MKnm0d1pBHYAghhDCGld/008ni8t1k+q0VvdyNcel+3Nit5/Kb6WT5ASVnx9hyTFosvBW2tqcTS3oY06HL6kcFNE2LY38P4LLZTAJDGM5gsdls88FH+DTNPznCimPSZN4joSap0DRN08J7Pzc05liPPMUvP/eFiY5Gxu4/XhdonF9Vqcg28GN2j/GRVQnCCHPvESHPi5RXobJCVi6l4Ma0esbGnjMvhq3v726MIYQQxnbssuxOtiTz9rLuThxppo3ceq68myNXx3Ths80D65vIMmTSYOiu2BLl+VGd/8pVX5r8gHqlyWMMXvPJR/YFuxsb2Y87V6Lx1aH5z7cP8TTFy0/q8/3h12UNiX98MBdjeM55WH5SAAAAAGjomx8C+nRp9pDZp94YtZux9cT5M7vmdOA83zFpwvbX0ntjyISQsYN/u5Jet9/ivX9fPLdv6SCXrKtLh4zZ8brs5hmKFIuEJUkHxw35Cxu2/uj5cweW9HbB0m4un78niUS4RdOeo8aMau9MIMysUc/RY8aM7FiPgRCixEKhUCihNUhFdiZaIhYJhWJKLvuUWCQUCsVlmdEgv2pTET7+fdS0Iy+ZraZuPPbPpbO75gZx35yYOX5thERZJSotZOVS0hKhUJB9Y/73O0r6rTpy/vzB3/o6Zt9cPmrkqKEjQwq6/7b/7wsnNk5swUq5unT6hsiy8xXenDdizj8FzWdsO3X+9PaZgcaJp38atzZaSX7U5r9SplDhzfkj55x/Z9R66sbjf5/c9L3Zpenzz2cI5CpJ/dUh47f8OOdsqvvY9ccvXrlwZNVwLzL20IxfjqRTCAAAAADVVdMRc80ikzcHGWGEy8QLn6QbMg705+HMZkuei2mapvnXp7gQGKfVihjZUJk4fk2gMUY4B4fKRij5p4bzMEQ4DD78XjomSGYe6G+OYbzhp8uOOdSPjRges8PKxtcqj7ipSkX6EuHdmfUZmOmQE3Jjo+fH2uCE4w9XpSOsGuRXVSqlBzz42YOBmK1XvZZIM5K6rQsHY/qteClRWZlVC1m5lILrwXUJhFv32ZMsSyrn6CALHGHGrZc/lw2Zllyf4kIgdvdd2bLz7+phivP67P1YWjNkytbOxhij4dxHCkcr1ea/UqbItL29zTDcfugx2Tj0p4sTXQiEcIuRZ6V5Unt1yIyd3TmY+cAjudJcFJ4ba4cTDhOvyK4MjLACAAAAOvvGR1hzb914KsCdeo3sZlG6AbdqF9iYkLyJjRMihEThl26kUky/YaO8ZVMmGR7Dh/qzqNQbl58K5RLCLTqPGuwkrU3cvL67HUGXlJRomZ3qpqJ5flWgsrPzKIywtrOVTn3FbYN+WDBv7tBmVaeV6gLjtBk4yFU2rZZbr549jpgth45pwpFuYrq5OuCIFhbzS0cn8/+9er+I8OkQZFtaM7hDa/96DDIpOipP0fCltvnn3wm9X4jZ9hjdz05a8xbdxvRzrTpHVuXVYXj1mTl3zoiWptKDWQ51rHBaJBLCyscAAABAtX3bN12JEuLfCGnCw6dx2V02hOuUMwmDSoxsjBCicuPiP5C4tYeXQ/ltS7idZwNr/E5qfFwu1dFeFvBjpmbmWHnCBKHLfU7VTUWL/KrAcHNzItDzeyGrb/Za2dmWQIjhPXTxH0Olu8l3d47dfCsXhxF1Aob2aqTFvWEsEy6rPHsEg8AQZmpugcttky+3KC46rgSZOLrYybbijg62GP0qKy2dQrZVSqQm/5VJEmJf8WlGU5+ygBkhVpMmngSWXOlIVVcHt+wwbXWH8r+Lk8NfpFPw1DgAAABAL77tgJXKysqlMGNLK275Npxr5yr9k8zJyaNozNTCQi5OQZg5zwyjM/M+faKRvdxm+WN0Vq1UaG3yqxSj0YSfB+8fdyJ87XeeF7qP/mHy1PG9vcvvdxdH7p45+Vhu+dgmK2hzF60CVqTg8b8qyi1JS8skUdHVWU09FkiPogrTJIgWlBQrGmFVk/8qyaenZ5MYzrOykjvEyIJnrCBH6q8Olf/6+tE9e/YdvRSZJqRxa3XHAwAAAEAD33jAKhKKaIxgMhWHMzRFUQhhXNMKz0QizExNMIRokjS0X3v1lF/cacShMDu/ZSu2ngq7su1/V3Yu9+7z0/I/5g704iKEGG5BYyca88vTYng25ipPTA+EAhFCDAtnr4Y2ZeVq2AgRdg2qPn9Mff6rEItECDGYLPm0MI6REYa0m9GRH3Xgt19XHbj5RmDXauiMQ0MfT553SasEAAAAAKDEtx2w4gSBY4gilSyXiZmYGCOEREKB/FZaKBQhhIxMTPQypqpH+ssvw6nT7D2dZq5/ffPEgb17Dpw7v2LIvft/3rk6uzGL0XzSpr8m6TnnquAcIzaGMTvOP72/D0f94QghlfmvfCjG4XAwuqikWIRQ2SRXWiIRa/V1hEzeM6Zb8KVir5Hrb64MDnLhFJ8eYWjNAwAAAKi1vu1JdhiPZ47RAj5fXL5NFLH/1//N2Xwri0KETR1bI4wqyM2Xj2jJ/LxCCuPY1LHRaZ6qfonFcoGVzvmtkEo53Nyza/CqE48jjo52xnLubtn5QMP7tvQKs7Qwx2iRUFj++z/18cn5k6duxOWrfqVG+SesrHk4ogvz5e/gEufl8bUJWMlXR3aFZuEewbv2zAxy0TSsBgAAAIBmvu2Alele35lAkuQ3CWWP9KTSwg5u2rT9WhKOI8TxbuTOoNJfx2fLBUuf4hPSKYart5dRjeRZHpWZmlYsF1jplt9KqQiuzAn0Cxh/IEUW9RIOvQe2t8CprLQ0JUPRnxXTw9ONgYrTU3PKCiV4sGn8iNFLL2Uryo+W+WfU96jHwiSvo2PKx6VFsS9eibQJWMWJie9JjNmweXNZsEoKSkRaJAAAAAAAFb7tgBV3bNfOiyGJ/+dMhDRaobJv34kWMzx9fc0RQgzv7p3dCdHj40deySJa8u2JUw8FhEun7j5ffDoFh8NCSMwvko0TCuOOngqXGxzWLL/qUsGw/JTn4TfuxRTLtpDvE5IKaaKuu1tNzCDB7YI6NmaII69dTZNGrIKnYc+KMGuvRo6Kxoy1zb9Zh44t2XR2WOhDvnRL3q2D5xKVrpKgCMblGmM0+SkzqzSLVPrlK+FCGtG0srCXyou5dOjAwSN3kmviSwAAAABQu3zbc1gRo9mEad12Tr2yafQIzqIJ/ryMO9uWXs7nBo4Z1YSBEEIs/x9nddk37drygcOF88e1ssqLPLpm1d1is6AZP7apMhtSBdzSyhInk88umsj3tms9efX4ZjpkluXR3Mcci7+3/ZcQ60EOebE3j+y8XujExd/IHaI+v2pTYbcb1s/1QMiJuRPc88b524g/PDuz6c9HIm6bCeP8VJa5aiH107oY3uOCu22ecnXhkJ9E/+vpJow6sGJvIu718/gghb+9a5t/wmXklH5rw07tmzK6zrKJzZlJ17evOSew4WAZmMbPbGD6+Dc3DUl5tOWn3+2n+DETzq9fH+/WzDw95vm5kIsek/tUfYgCnfrPsklLIlgDjwzs6KafB9wCAAAAX6+aXrmgxpEfQxd1cTKSLQGPm/tMOPJGLLc/7cqCIEeWLHTBmPZt51z4ILfmE//UcB5GuE2/LSjbJHw0tyEDsfsdKltNKvffBQH2RgSGydZPUrjSlZJUyrYIXuzo5yxbyp7j2ndD2NExFVa60iS/KlKRHZH3aF0/9/J7tDAjp87zLr5Xvc6VokIqXOkK4404XVL2GnH4gsZMxO69L69skyRxXVsmYnXcmEKWFerD+Vl+VgxpjnCu57CQqCLlGVGd/6qLTpHpofPb2jExaQtoMfNMyHAeTjhOKlunSu3VEURv6V1XVqnG9YeERCefHu/OxhAraPN7supJJbHLWzIRZjLwaPmKYwAAAABQDKOV/mj5LRFlvnwcHp9axHRo2r6tl0WVX5oFaVEPHr9KF7BsPfwDfR1rckSM/z7icWRiLtvdP6ilk7Lbe9TmV30qkrx3L6NfvEotNqrrE9Da20abAeXPgipOj48Mj/tI2fq0DWxopW70Vtv8U0XJT+6Evysxa9i+UxO09zuXaXearoh+uLCh5rfW8d8/vfc0sdCofkCQn5MxQkiSn5bKN6rjwKvxygMAAABqNQhYwTeOSj8xbcimWK/px3aNLl14lfq4f6DPpCt1frkfuaoVxJoAAABAjfvG57ACgFt7Owijdx2cH+zImNvDFUt9enz1sot51v02/NgSolUAAADAEMAIKwD8qO0TRiw8+zq/dDEwjO3cdeGBIwuDbL7th2gAAAAAhgICVgAQQkiSFXv3XuTbTCHXuXlQ55YO8PR/AAAAwGBAwAoAAAAAAAwa/OYJAAAAAAAMGgSsAAAAAADAoEHACgAAAAAADBoErAAAAAAAwKBBwAoAAAAAAAwaBKwAAAAAAMCgQcAKAAAAAAAMGgSsAADw/3brWAAAAABgkL/1NHYURQCsCSsAAGvCCgDAmrACALAWqLZpPcAx8RcAAAAASUVORK5CYII=;" parent="1" vertex="1">
          <mxGeometry x="240" y="279" width="912" height="271" as="geometry" />
        </mxCell>
        <mxCell id="MvSZSszgrA-fimm4-v6c-2" value="&lt;font color=&quot;#ff3333&quot; style=&quot;font-size: 16px;&quot;&gt;$$P_{ss}(\Omega)$$&lt;/font&gt;" style="text;html=1;align=center;verticalAlign=middle;whiteSpace=wrap;rounded=0;" parent="1" vertex="1">
          <mxGeometry x="310" y="386" width="60" height="30" as="geometry" />
        </mxCell>
        <mxCell id="MvSZSszgrA-fimm4-v6c-3" value="&lt;font color=&quot;#ff3333&quot; style=&quot;font-size: 16px;&quot;&gt;$$P_{xx}(\omega)$$&lt;/font&gt;" style="text;html=1;align=center;verticalAlign=middle;whiteSpace=wrap;rounded=0;" parent="1" vertex="1">
          <mxGeometry x="749" y="380" width="60" height="30" as="geometry" />
        </mxCell>
        <mxCell id="MvSZSszgrA-fimm4-v6c-4" value="&lt;font color=&quot;#ff3333&quot; style=&quot;font-size: 16px;&quot;&gt;$$V(e^{j\omega})$$&lt;/font&gt;" style="text;html=1;align=center;verticalAlign=middle;whiteSpace=wrap;rounded=0;" parent="1" vertex="1">
          <mxGeometry x="850" y="380" width="60" height="30" as="geometry" />
        </mxCell>
        <mxCell id="MvSZSszgrA-fimm4-v6c-6" value="&lt;font color=&quot;#ff3333&quot; style=&quot;font-size: 16px;&quot;&gt;$$W(e^{j\omega})$$&lt;/font&gt;" style="text;html=1;align=center;verticalAlign=middle;whiteSpace=wrap;rounded=0;" parent="1" vertex="1">
          <mxGeometry x="804" y="460" width="60" height="30" as="geometry" />
        </mxCell>
      </root>
    </mxGraphModel>
  </diagram>
</mxfile>
